<svg id="Layer_1" data-name="Layer 1" xmlns="http://www.w3.org/2000/svg" viewBox="0 0 24 24">
  <title>call mining</title>
  <g>
    <path d="M15.5,21.5h2a.5.5,0,0,1,.5.5h0a.5.5,0,0,1-.5.5h-2A.5.5,0,0,1,15,22h0A.5.5,0,0,1,15.5,21.5Z"/>
    <path d="M15.5,1.5h2A.5.5,0,0,1,18,2h0a.5.5,0,0,1-.5.5h-2A.5.5,0,0,1,15,2h0A.5.5,0,0,1,15.5,1.5Z"/>
    <path d="M6.5,1.5h2A.5.5,0,0,1,9,2H9a.5.5,0,0,1-.5.5h-2A.5.5,0,0,1,6,2H6A.5.5,0,0,1,6.5,1.5Z"/>
    <path d="M12,15h0a.5.5,0,0,1,.5.5v3a.5.5,0,0,1-.5.5h0a.5.5,0,0,1-.5-.5v-3A.5.5,0,0,1,12,15Z"/>
    <path d="M5.8,4.1a.495.495,0,1,0-.7.7L9.4,9.1a.495.495,0,0,0,.7-.7Z"/>
    <circle cx="21" cy="22" r="2"/>
    <circle cx="12" cy="22" r="2"/>
    <circle cx="3" cy="22" r="2"/>
    <circle cx="21" cy="12" r="2"/>
    <circle cx="12" cy="12" r="2"/>
    <circle cx="3" cy="12" r="2"/>
    <circle cx="21" cy="2" r="2"/>
    <circle cx="12" cy="2" r="2"/>
    <circle cx="3" cy="2" r="2"/>
  </g>
</svg>
