<svg id="Layer_1" data-name="Layer 1" xmlns="http://www.w3.org/2000/svg" viewBox="0 0 24 24"><title>invoices</title><path d="M16.5,9h-1a.5.5,0,0,0,0,1h1a.5.5,0,0,0,0-1Zm0,3h-1a.5.5,0,0,0,0,1h1a.5.5,0,0,0,0-1Zm-8-6h2a.5.5,0,0,0,0-1h-2a.5.5,0,0,0,0,1ZM16,5.5a.5.5,0,0,0-.5-.5h-2a.5.5,0,0,0,0,1h2A.5.5,0,0,0,16,5.5ZM7.5,10h3a.5.5,0,0,0,0-1h-3a.5.5,0,0,0,0,1Zm9,5h-1a.5.5,0,0,0,0,1h1a.5.5,0,0,0,0-1Zm-6,0h-3a.5.5,0,0,0,0,1h3a.5.5,0,0,0,0-1Zm2-3h-5a.5.5,0,0,0,0,1h5a.5.5,0,0,0,0-1Zm7.50012,9.086H20V2.914h.00012A1.5,1.5,0,1,0,18.08539.99988V1H5.91461V.99988A1.50016,1.50016,0,1,0,3.99988,2.914H4V21.086H3.99988a1.5,1.5,0,1,0,1.91473,1.91412V23H7a1,1,0,0,1,2,0h2a1,1,0,0,1,2,0h2a1,1,0,0,1,2,0h1.08539v.00012A1.50016,1.50016,0,1,0,20.00012,21.086ZM19,5H17.5a.5.5,0,0,0,0,1H19V21.086a1.50456,1.50456,0,0,0-.915.914H17.72A1.97915,1.97915,0,0,0,14.28,22H13.73A1.99992,1.99992,0,0,0,10.28,22H9.72A2,2,0,0,0,6.27,22H5.915A1.50456,1.50456,0,0,0,5,21.086V6H6.5a.5.5,0,0,0,0-1H5V2.914A1.50456,1.50456,0,0,0,5.915,2h12.17A1.50456,1.50456,0,0,0,19,2.914Z"/></svg>