<svg id="Layer_1" data-name="Layer 1" xmlns="http://www.w3.org/2000/svg" viewBox="0 0 24 24">
  <title>schedule</title>
  <path d="M5.5,8A1.5,1.5,0,1,1,4,9.5,1.5,1.5,0,0,1,5.5,8ZM12,8a1.5,1.5,0,1,1-1.5,1.5A1.5,1.5,0,0,1,12,8Zm6.5,0A1.5,1.5,0,1,1,17,9.5,1.5,1.5,0,0,1,18.5,8Zm-13,5A1.5,1.5,0,1,1,4,14.5,1.5,1.5,0,0,1,5.5,13ZM12,13a1.5,1.5,0,1,1-1.5,1.5A1.5,1.5,0,0,1,12,13Zm6.5,0A1.5,1.5,0,1,1,17,14.5,1.5,1.5,0,0,1,18.5,13Zm-13,5A1.5,1.5,0,1,1,4,19.5,1.5,1.5,0,0,1,5.5,18ZM12,18a1.5,1.5,0,1,1-1.5,1.5A1.5,1.5,0,0,1,12,18Zm6.5,0A1.5,1.5,0,1,1,17,19.5,1.5,1.5,0,0,1,18.5,18ZM5.5,1h0A1.5,1.5,0,0,1,7,2.5H7A1.5,1.5,0,0,1,5.5,4h0A1.5,1.5,0,0,1,4,2.5H4A1.5,1.5,0,0,1,5.5,1Zm13,0h0A1.5,1.5,0,0,1,20,2.5h0A1.5,1.5,0,0,1,18.5,4h0A1.5,1.5,0,0,1,17,2.5h0A1.5,1.5,0,0,1,18.5,1Zm2.44958,2a2.50011,2.50011,0,0,1-4.89916,0H7.94958A2.50011,2.50011,0,0,1,3.05042,3H0V24H24V3ZM23,23H1V6H23Z"/>
</svg>
