<svg id="Layer_1" data-name="Layer 1" xmlns="http://www.w3.org/2000/svg" viewBox="0 0 24 24">
  <title>storage</title>
  <g>
    <path d="M11.5,4a.5.5,0,0,0,0,1h8a.5.5,0,0,0,0-1Z"/>
    <circle cx="4.5" cy="4.5" r="0.5"/>
    <circle cx="7.5" cy="4.5" r="0.5"/>
    <path d="M19.5,12a.5.5,0,0,0,0-1h-8a.5.5,0,0,0,0,1Z"/>
    <circle cx="4.5" cy="11.5" r="0.5"/>
    <circle cx="7.5" cy="11.5" r="0.5"/>
    <path d="M11.5,18a.5.5,0,0,0,0,1h8a.5.5,0,0,0,0-1Z"/>
    <circle cx="4.5" cy="18.5" r="0.5"/>
    <circle cx="7.5" cy="18.5" r="0.5"/>
    <path d="M23,21.09V18.5a.5.5,0,0,0-1,0v2.59a1.49,1.49,0,0,0-.91.91H2.91A1.49,1.49,0,0,0,2,21.09V16H22a1,1,0,0,0,1-1V9a1,1,0,0,0-1-1H2V2.91A1.49,1.49,0,0,0,2.91,2H21.09a1.49,1.49,0,0,0,.91.91V5.5a.5.5,0,0,0,1,0V2.91A1.5,1.5,0,1,0,21.09,1H2.91A1.5,1.5,0,1,0,1,2.91V12.5a.5.5,0,0,0,1,0V9H22v6H2a1,1,0,0,0-1,1v5.09A1.5,1.5,0,1,0,2.91,23H21.09A1.5,1.5,0,1,0,23,21.09Z"/>
  </g>
</svg>
