<svg id="Layer_1" data-name="Layer 1" xmlns="http://www.w3.org/2000/svg" viewBox="0 0 48 48">
  <title>notification_48px</title>
  <path d="M38,34h.05A9.84,9.84,0,0,1,36,28V16A12,12,0,0,0,26.68,4.33,3,3,0,0,0,24,0h0a3,3,0,0,0-2.68,4.33A12,12,0,0,0,12,16V28a9.84,9.84,0,0,1-2.05,6H10a4,4,0,0,0,0,8h8a6,6,0,0,0,12,0h8a4,4,0,0,0,0-8ZM24,46a4,4,0,0,1-4-4h8A4,4,0,0,1,24,46Zm14-6H10a2,2,0,0,1,0-4h.93a12.0004,12.0004,0,0,0,1.46-2h0A11.86,11.86,0,0,0,14,28V16a10,10,0,0,1,20,0V28a11.86,11.86,0,0,0,1.65,6h0a12.0004,12.0004,0,0,0,1.46,2H38a2,2,0,0,1,0,4Z"/>
</svg>
