<svg id="Layer_1" data-name="Layer 1" xmlns="http://www.w3.org/2000/svg" viewBox="0 0 48 48">
  <title></title>
  <path d="M16,2a2,2,0,1,1-2,2A2,2,0,0,1,16,2Zm8-2a1,1,0,0,0,0,2A22,22,0,1,1,2,24a1,1,0,0,0-2,0A24,24,0,1,0,24,0Zm1,8a6.91578,6.91578,0,0,1,7,7,7,7,0,0,1-14,0,7.12856,7.12856,0,0,1,.93091-3.47052l.00018-.00037a1.00429,1.00429,0,0,0-1.73981-1.00366,8.98557,8.98557,0,0,0,1.5849,10.96588A17.93955,17.93955,0,0,0,8,37.91a6.57379,6.57379,0,0,0,0,1c.68-.5,1.33-1,2-1.46A15.93842,15.93842,0,0,1,20.64618,22.87494h0a8.98563,8.98563,0,0,0,9.31628-.36975h0A15.99652,15.99652,0,0,1,40.01,30.47c.8.12006,1.61.21,2.39.37006A17.99963,17.99963,0,0,0,31.68817,21.0072,8.98907,8.98907,0,0,0,25,6a6.58616,6.58616,0,0,0-2.76154.46155A1.066,1.066,0,0,0,21.589,7.77272a1.006,1.006,0,0,0,1.22185.60521A7.15543,7.15543,0,0,1,25,8Z"/>
</svg>
