<svg id="Layer_1" data-name="Layer 1" xmlns="http://www.w3.org/2000/svg" viewBox="0 0 48 48">
  <title>security_48px</title>
  <g>
    <path d="M42.23,18.68C41,18,39,18,39,16V14C39,6.27,31.73,0,24,0S9,6.27,9,14v2c0,2-2,2-3.23,2.68C3,20,3,22,3,24v4C3,39,13,48,24,48s21-9,21-20V24C45,22,45,20,42.23,18.68ZM11,14C11,7.37,17.37,2,24,2S37,7.37,37,14v4H11ZM43,28c0,9.94-9.06,18-19,18S5,37.94,5,28V24a4,4,0,0,1,4-4H39a4,4,0,0,1,4,4Z"/>
    <path d="M28,27a4,4,0,1,0-6.08,3.4c-.22,1.13-.82,4.36-.92,5.6a2.09,2.09,0,0,0,2,2h2a2.09,2.09,0,0,0,2-2c-.1-1.24-.71-4.46-.92-5.6A4,4,0,0,0,28,27Zm-3,9H23l.55-6.55a2.5,2.5,0,1,1,.9,0Z"/>
    <path d="M31,16.5v-4a1.5,1.5,0,0,0-3,0v4a1.5,1.5,0,0,0,3,0Z"/>
    <path d="M20,16.5v-4a1.5,1.5,0,0,0-3,0v4a1.5,1.5,0,0,0,3,0Z"/>
  </g>
</svg>
