<svg id="Layer_1" data-name="Layer 1" xmlns="http://www.w3.org/2000/svg" viewBox="0 0 16 16">
  <title></title>
  <g>
    <path d="M14,2H2A2,2,0,0,0,0,4v8a2,2,0,0,0,2,2H14a2,2,0,0,0,2-2V4A2,2,0,0,0,14,2Zm1.3,9.9a1.4,1.4,0,0,1-1.4,1.4H2.1A1.4,1.4,0,0,1,.7,11.9V4.1A1.4,1.4,0,0,1,2.1,2.7H13.9a1.4,1.4,0,0,1,1.4,1.4Z"/>
    <path d="M11,6A2,2,0,0,0,9.49,9.3h-3A2,2,0,1,0,5,10h6a2,2,0,0,0,0-4ZM5,9.3A1.3,1.3,0,1,1,6.3,8,1.3,1.3,0,0,1,5,9.3Zm6,0A1.3,1.3,0,1,1,12.3,8,1.3,1.3,0,0,1,11,9.3Z"/>
  </g>
</svg>
