<svg id="Layer_1" data-name="Layer 1" xmlns="http://www.w3.org/2000/svg" viewBox="0 0 24 24">
  <title>address book</title>
  <g>
    <path d="M3.5,6h0a1,1,0,0,1,1,1h0a1,1,0,0,1-1,1h0a1,1,0,0,1-1-1h0A1,1,0,0,1,3.5,6Z"/>
    <path d="M3.5,11h0a1,1,0,0,1,1,1h0a1,1,0,0,1-1,1h0a1,1,0,0,1-1-1h0A1,1,0,0,1,3.5,11Z"/>
    <path d="M3.5,16h0a1,1,0,0,1,1,1h0a1,1,0,0,1-1,1h0a1,1,0,0,1-1-1h0A1,1,0,0,1,3.5,16Z"/>
    <path d="M20,0H5A2,2,0,0,0,3,2V4H4V2A1,1,0,0,1,5,1H20a1,1,0,0,1,1,1V22a1,1,0,0,1-1,1H5a1,1,0,0,1-1-1V20H3v2a2,2,0,0,0,2,2H20a2,2,0,0,0,2-2V2A2,2,0,0,0,20,0Z"/>
    <path d="M16.48,10.32a3.49,3.49,0,1,0-5.42.68,6.42,6.42,0,0,0-3,6.59,13.07131,13.07131,0,0,1,.91-1v-.13a5.5,5.5,0,0,1,3-4.87,3.41,3.41,0,0,0,3.81-.48,5.51,5.51,0,0,1,3,1.89,13.00033,13.00033,0,0,1,1.3.14A6.51006,6.51006,0,0,0,16.48,10.32Zm-3,.68a2.51,2.51,0,1,1,.02,0Z"/>
  </g>
</svg>
