<svg id="icon_conference" xmlns="http://www.w3.org/2000/svg" viewBox="0 0 24 24">
  <title></title>
  <path id="_Composition_сontour_" data-name="&lt;Composition сontour&gt;" d="M22.79,17c.00207-.00983.00012-.01959.002-.02942a1.49887,1.49887,0,1,0-1.45892-2.4024L16,14a.99994.99994,0,0,0-.92.73l-1.16,2.66a1.00038,1.00038,0,0,1-.14.25.5001.5001,0,0,1-.53.11c-4.15-2.14-4.84-2.8-7-6.95a.50006.50006,0,0,1,.23413-.66724L6.49,10.13,9.29,8.9A1.00009,1.00009,0,0,0,10,8c0-.5993-.37915-3.99182-.52948-5.36493A1.49632,1.49632,0,1,0,7.04083,1.16418L7,1.17l-4.29.45-.00018.00012a1.49663,1.49663,0,1,0-1.6001,2.32214C3,16,9,21,20.06,22.91l.00384-.00006a1.49675,1.49675,0,1,0,2.26251-1.6604L22.33,21.24ZM2.1,3.91l-.00361-.03466a1.49571,1.49571,0,0,0,.89209-1.26075L3,2.61l4.16541-.43848A1.49467,1.49467,0,0,0,8.5,3l.019-.00189L8.52,3,9,7.59a.5.5,0,0,1-.3.51c-1,.4-3,1.31-3.36,1.54a.80994.80994,0,0,0-.23.91C6.93,15,9,17,13.45,18.91a.69991.69991,0,0,0,.91-.23c.23-.35,1.13-2.39,1.53-3.34A.5.5,0,0,1,16.4,15.04l4.6.46a1.494,1.494,0,0,0,.80951,1.32428L21.36,21l-.00538.01465a1.4961,1.4961,0,0,0-1.23443.89722L20.1,21.91C9,20,4,15,2.1,3.91ZM21,6a1,1,0,1,0-1-1A1,1,0,0,0,21,6ZM17,6a1,1,0,1,0-1-1A1,1,0,0,0,17,6ZM13,6a1,1,0,1,0-1-1A1,1,0,0,0,13,6Z"/>
</svg>
