<svg id="Layer_1" data-name="Layer 1" xmlns="http://www.w3.org/2000/svg" viewBox="0 0 24 24">
  <title></title>
  <g>
    <path d="M19.5,10.5h-5a.5.5,0,0,0,0,1h5a.5.5,0,0,0,0-1Z"/>
    <path d="M19.5,7.5h-5a.5.5,0,0,0,0,1h5a.5.5,0,0,0,0-1Z"/>
    <path d="M19.5,4.5h-5a.5.5,0,0,0,0,1h5a.5.5,0,0,0,0-1Z"/>
    <path d="M12,10h0a1,1,0,0,1,1,1h0a1,1,0,0,1-1,1h0a1,1,0,0,1-1-1h0A1,1,0,0,1,12,10Z"/>
    <path d="M12,7h0a1,1,0,0,1,1,1h0a1,1,0,0,1-1,1h0a1,1,0,0,1-1-1h0A1,1,0,0,1,12,7Z"/>
    <path d="M12,4h0a1,1,0,0,1,1,1h0a1,1,0,0,1-1,1h0a1,1,0,0,1-1-1h0A1,1,0,0,1,12,4Z"/>
    <path d="M24,15.5a1.50017,1.50017,0,0,0-2.88153-.585L16.08,14.47a1,1,0,0,0-1,.55005c-.28.61-.8,1.85-1.11,2.44995a.56993.56993,0,0,1-.69995.23,8.13713,8.13713,0,0,1-1.14-.58,15.05754,15.05754,0,0,1-2.65-1.9l-.71-.71a15.05785,15.05785,0,0,1-1.9-2.65,8.13611,8.13611,0,0,1-.58-1.14A.56993.56993,0,0,1,6.52,10.02C7.12,9.71,8.36,9.2,9,8.91a.99989.99989,0,0,0,.55-1L9.08813,2.87982A1.49872,1.49872,0,1,0,7.06885,1.074l-4.49091.38629a1.49755,1.49755,0,1,0-1.4386,2.49109L1.18,4.34A21.61016,21.61016,0,0,0,6.59,16.7l.71.71a21.67023,21.67023,0,0,0,12.36,5.4l.38538.04034A1.49755,1.49755,0,1,0,22.5191,21.405l.4032-4.47272A1.49524,1.49524,0,0,0,24,15.5ZM21.5,21a1.49736,1.49736,0,0,0-1.35883.87317A20.79574,20.79574,0,0,1,8,16.69L7.31,16A20.79519,20.79519,0,0,1,2.145,3.849,1.496,1.496,0,0,0,3,2.5c0-.01807-.0047-.03479-.00531-.05267l4.12347-.36286a1.49927,1.49927,0,0,0,.91785.8349L8.44,7.51a.67007.67007,0,0,1-.23.7c-.21.13-2,.88-2.55,1.15a1.34292,1.34292,0,0,0-.27.13A.90016.90016,0,0,0,5,9.83a.8597.8597,0,0,0,0,.57,1.88144,1.88144,0,0,0,.14.42c.15.34.52,1,.7,1.31A15.44182,15.44182,0,0,0,8,15.28l.71.71a15.28088,15.28088,0,0,0,3.14,2.14c.33.18,1,.55,1.31.7a1.87821,1.87821,0,0,0,.42.13995.85982.85982,0,0,0,.57-.06.90012.90012,0,0,0,.34-.36,1.33921,1.33921,0,0,0,.13-.27c.27-.59,1-2.35,1.15-2.55A.67.67,0,0,1,16.47,15.5l4.5921.40411a1.498,1.498,0,0,0,.83521.96778l-.34516,4.13336C21.53442,21.00464,21.51788,21,21.5,21Z"/>
  </g>
</svg>
