<svg id="Layer_1" data-name="Layer 1" xmlns="http://www.w3.org/2000/svg" viewBox="0 0 24 24">
  <title>call_queues</title>
  <path d="M21.08,13.55a4,4,0,0,0-4.74-6.18,4.48,4.48,0,0,0-8.68,0,4,4,0,0,0-4.74,6.18A6.52,6.52,0,0,0,0,16H1.2a5.51,5.51,0,0,1,2.54-1.71,4,4,0,0,0,1.44.63h0a10.82,10.82,0,0,0-2.19,4A15.49926,15.49926,0,0,1,4.36,18a10,10,0,0,1,5.82-5.44,4.45,4.45,0,0,0,3.61,0A10,10,0,0,1,19.61,18a15.5,15.5,0,0,1,1.37.89,10.82,10.82,0,0,0-2.18-4,4,4,0,0,0,1.44-.63A5.51,5.51,0,0,1,22.8,16H24A6.52,6.52,0,0,0,21.08,13.55ZM6.07,14H6A3,3,0,1,1,7.51,8.42V8.5A4.47,4.47,0,0,0,9.16,12,11.13,11.13,0,0,0,6.07,14ZM12,12a3.5,3.5,0,1,1,3.5-3.5A3.5,3.5,0,0,1,12,12Zm6,2h-.07a11.13,11.13,0,0,0-3.09-2A4.47,4.47,0,0,0,16.5,8.5V8.42A3,3,0,1,1,18,14Z"/>
</svg>
