<svg id="Layer_1" data-name="Layer 1" xmlns="http://www.w3.org/2000/svg" viewBox="0 0 24 24">
  <title></title>
  <path d="M24,12a11.94,11.94,0,0,0-2.86-7.76h0a8.4191,8.4191,0,0,0-.64-.7h0A12,12,0,0,0,3.52946,3.51054L3.5,3.54h0c-.22.22-.43.46-.64.7h0a12,12,0,0,0,0,15.53h0a8.4191,8.4191,0,0,0,.64.7h0a12,12,0,0,0,16.97054.02946L20.5,20.47h0c.22-.22.43-.46.64-.7h0A11.94,11.94,0,0,0,24,12Zm-1,0a11,11,0,0,1-2.83,7.35,17.43907,17.43907,0,0,0-2.34-.71A16.58019,16.58019,0,0,0,18.59,16H21a.5.5,0,0,0,0-1H18.77A20.14045,20.14045,0,0,0,19,12a20.14045,20.14045,0,0,0-.23-3H21a.5.5,0,0,0,0-1H18.59a16.58019,16.58019,0,0,0-.76-2.64,17.41987,17.41987,0,0,0,2.34-.71A11,11,0,0,1,23,12ZM12,23c-1.77,0-3.36-1.42-4.46-3.65a27.80007,27.80007,0,0,1,4-.34V21.5a.5.5,0,0,0,1,0V19a27.80007,27.80007,0,0,1,4,.34C15.36,21.58,13.77,23,12,23ZM6,12a19.64931,19.64931,0,0,1,.23-3H11.5v6H6.23A19.64931,19.64931,0,0,1,6,12ZM12,1c1.77,0,3.36,1.42,4.46,3.65a27.80007,27.80007,0,0,1-4,.34V2.5a.5.5,0,0,0-1,0V5a27.8,27.8,0,0,1-4-.34C8.64,2.42,10.23,1,12,1Zm6,11a19.64931,19.64931,0,0,1-.23,3H12.5V9h5.27A19.64931,19.64931,0,0,1,18,12ZM12.5,8V6a26.54977,26.54977,0,0,0,4.36-.42A15.37978,15.37978,0,0,1,17.58,8Zm-1-2V8H6.42a15.37965,15.37965,0,0,1,.73-2.43A26.54947,26.54947,0,0,0,11.5,6Zm0,10v2a26.54977,26.54977,0,0,0-4.36.42A15.37978,15.37978,0,0,1,6.42,16Zm1,2V16h5.08a15.37965,15.37965,0,0,1-.73,2.43A26.54947,26.54947,0,0,0,12.5,18Zm5-13.53a10.00007,10.00007,0,0,0-2-2.91,11,11,0,0,1,4,2.38,17.56052,17.56052,0,0,1-2.05.53ZM8.56,1.56a10.00007,10.00007,0,0,0-2,2.91,17.55972,17.55972,0,0,1-2-.54A11,11,0,0,1,8.56,1.56ZM1,12A11,11,0,0,1,3.83,4.65a17.42947,17.42947,0,0,0,2.34.71A16.58019,16.58019,0,0,0,5.41,8H3A.5.5,0,0,0,3,9H5.23a19.73024,19.73024,0,0,0,0,6H3a.5.5,0,0,0,0,1H5.41a16.58019,16.58019,0,0,0,.76,2.64,17.42947,17.42947,0,0,0-2.34.71A11,11,0,0,1,1,12Zm5.55,7.53a10.00007,10.00007,0,0,0,2,2.91,11,11,0,0,1-4-2.38A17.56008,17.56008,0,0,1,6.55,19.53Zm8.89,2.91a10.00007,10.00007,0,0,0,2-2.91,17.55972,17.55972,0,0,1,2,.54A10.99983,10.99983,0,0,1,15.44,22.44Z"/>
</svg>
