<svg id="Layer_1" data-name="Layer 1" xmlns="http://www.w3.org/2000/svg" viewBox="0 0 24 24">
  <title>dashboard</title>
  <g>
    <path d="M13,1V11H23A10,10,0,0,0,13,1Zm1,9V2.05865A8.99849,8.99849,0,0,1,21.94135,10Z"/>
    <path d="M20.5,11a1.49569,1.49569,0,0,0-1.4082,1H12.9082A1.49479,1.49479,0,0,0,12,11.0918V4.9082A1.49747,1.49747,0,1,0,10.07092,3.043l.00012.004A9.99807,9.99807,0,1,0,20.95312,13.92877l.00446.00012A1.50022,1.50022,0,0,0,20.5,11ZM11,22a8.99973,8.99973,0,0,1-.89667-17.95471A1.50739,1.50739,0,0,0,11,4.9082v6.1836A1.49648,1.49648,0,1,0,12.9082,13h6.1836a1.50722,1.50722,0,0,0,.86084.896l.00213.00006A9.00022,9.00022,0,0,1,11,22Z"/>
  </g>
</svg>
