<svg id="Layer_1" data-name="Layer 1" xmlns="http://www.w3.org/2000/svg" viewBox="0 0 24 24">
  <title></title>
  <path d="M8.5,5h-2a.5.5,0,0,0,0,1h2a.5.5,0,0,0,0-1Zm0,3h-4a.5.5,0,0,0,0,1h4a.5.5,0,0,0,0-1Zm0,3h-6a.5.5,0,0,0,0,1h6a.5.5,0,0,0,0-1Zm0,3h-7a.5.5,0,0,0,0,1h7a.5.5,0,0,0,0-1Zm0,3h-5a.5.5,0,0,0,0,1h5a.5.5,0,0,0,0-1Zm0,3h-3a.5.5,0,0,0,0,1h3a.5.5,0,0,0,0-1ZM17.10606,8.60249a.56266.56266,0,0,0,0-.70711.56317.56317,0,0,0-.70711,0c-1.27534.82826-4.94975,3.53554-4.94975,3.53554a1.5,1.5,0,0,0,2.12132,2.12132S16.27757,9.87768,17.10606,8.60249Zm-1.41422.70711s-2.049,2.8873-2.687,3.677a.7.7,0,1,1-.99-.99C12.80413,11.35807,15.69184,9.3096,15.69184,9.3096ZM9.87762,2.20868a.46911.46911,0,0,0-.37952.48541.5.5,0,0,0,.5.5c.04443-.00238.103-.0127.103-.0127A8.81147,8.81147,0,0,1,11.5,3.02155V3.5a.5.5,0,0,0,1,0V3.02527a9.94457,9.94457,0,0,1,6.20062,2.567L18.364,5.929a.5.5,0,0,0,.707.707l.33667-.33667A9.94455,9.94455,0,0,1,21.97473,12.5H21.5a.5.5,0,0,0,0,1h.47473a9.94457,9.94457,0,0,1-2.567,6.20062L19.071,19.364a.5.5,0,0,0-.70709.70709l.33667.33667A9.94456,9.94456,0,0,1,12.5,22.97473V22.5a.5.5,0,0,0-1,0v.47845a8.81228,8.81228,0,0,1-1.39886-.15985s-.05859-.01031-.103-.0127a.5.5,0,0,0-.5.5.46592.46592,0,0,0,.37952.48541h0A13.16427,13.16427,0,0,0,12,24,11,11,0,0,0,12,2,10.084,10.084,0,0,0,9.87762,2.20868ZM10,1h4V2h2V0H8V2h2Z"/>
</svg>
