<svg id="Layer_1" data-name="Layer 1" xmlns="http://www.w3.org/2000/svg" viewBox="0 0 24 24">
  <title>exit</title>
  <path id="_exit_" data-name="&lt;exit&gt;" d="M23.8,11.5,21,8.8a.61942.61942,0,0,0-.8.1.48333.48333,0,0,0,0,.7L22,11.5H16v1h6l-1.8,1.9a.61942.61942,0,0,0,.1.8.48333.48333,0,0,0,.7,0l2.8-2.7A.66806.66806,0,0,0,23.8,11.5ZM12,23A11,11,0,1,1,21.5,6.5l.9-.5A12.09313,12.09313,0,0,0,5.9,1.6,11.98854,11.98854,0,0,0,18,22.3,11.10747,11.10747,0,0,0,22.3,18l-.9-.5A10.76258,10.76258,0,0,1,12,23Z"/>
</svg>
