<svg id="Layer_1" data-name="Layer 1" xmlns="http://www.w3.org/2000/svg" viewBox="0 0 24 24">
  <title>extensions</title>
  <path d="M12,0A12,12,0,0,0,0,12H1A11,11,0,1,1,12,23v1A12,12,0,0,0,12,0Zm6.48,9.32-.00946.01111A3.49362,3.49362,0,1,0,12.2959,6.09918l.002.00061A3.48319,3.48319,0,0,0,8.89819,11.821h0A8.48963,8.48963,0,0,0,4,19.51v.55a12.99449,12.99449,0,0,1,1-1.43,7.54373,7.54373,0,0,1,4.74475-6.11834,3.44163,3.44163,0,0,0,4.03491-.36438A7.489,7.489,0,0,1,17.94,14.35a12.88064,12.88064,0,0,1,1.68.51,8.52283,8.52283,0,0,0-5.09876-3.61182,3.48935,3.48935,0,0,0,.18286-.34735A3.39195,3.39195,0,0,0,17.788,10.129L17.77,10.15a5.51016,5.51016,0,0,1,3,1.89,13.01121,13.01121,0,0,1,1.3.14A6.51006,6.51006,0,0,0,18.48,9.32ZM11.5,12A2.5,2.5,0,1,1,14,9.5,2.5,2.5,0,0,1,11.5,12Zm4-2a2.49694,2.49694,0,0,1-.544-.06323l-.00006.00024A3.44952,3.44952,0,0,0,15,9.5a3.48477,3.48477,0,0,0-1.774-3.02753A2.498,2.498,0,1,1,15.5,10Z"/>
</svg>
