<svg id="Layer_1" data-name="Layer 1" xmlns="http://www.w3.org/2000/svg" viewBox="0 0 24 24">
  <title>knowledge_base</title>
  <path d="M10,23h4v1H10ZM8.5,21h7v1h-7Zm0-2h7v1h-7ZM15,6V7a1,1,0,0,0,.15.5,1.00038,1.00038,0,1,0,1.7,0A1,1,0,0,0,17,7V6a1,1,0,0,0-2,0ZM11,5a1,1,0,0,0-1,1V7a1,1,0,0,0,.15.5,1.00038,1.00038,0,1,0,1.7,0A1,1,0,0,0,12,7V6A1,1,0,0,0,11,5Zm1-5A6.99995,6.99995,0,0,0,7.05029,11.94971C7.70258,12.73926,8,13,8,15c0,1.49371,1,1.66,1,1.66V18h6V16.66s1-.16626,1-1.66c0-2,.29742-2.26074.94971-3.05029A6.99995,6.99995,0,0,0,12,0Zm4.24194,11.24194A4.77761,4.77761,0,0,0,15,15a.97939.97939,0,0,1-1,1v1H10V16a.97939.97939,0,0,1-1-1,4.77761,4.77761,0,0,0-1.24194-3.75806,6,6,0,1,1,8.48388,0Z"/>
</svg>
