<svg id="Layer_1" data-name="Layer 1" xmlns="http://www.w3.org/2000/svg" viewBox="0 0 24 24">
  <title></title>
  <path d="M15,11h6a2.00591,2.00591,0,0,0,2-2V2.914h.00012A1.5,1.5,0,1,0,21.08539.99988V1H15a2.00591,2.00591,0,0,0-2,2V9A2.00591,2.00591,0,0,0,15,11ZM14,3a.94479.94479,0,0,1,1-1h6.085A1.50456,1.50456,0,0,0,22,2.914V9a.94479.94479,0,0,1-1,1H15a.94479.94479,0,0,1-1-1ZM9,1H2.91461V.99988A1.50016,1.50016,0,1,0,.99988,2.914H1V9a2.00591,2.00591,0,0,0,2,2H9a2.00591,2.00591,0,0,0,2-2V3A2.00591,2.00591,0,0,0,9,1Zm1,8a.94479.94479,0,0,1-1,1H3A.94479.94479,0,0,1,2,9V2.914A1.50456,1.50456,0,0,0,2.915,2H9a.94479.94479,0,0,1,1,1ZM9,13H3a2.00591,2.00591,0,0,0-2,2v6.086H.99988a1.5,1.5,0,1,0,1.91473,1.91412V23H9a2.00591,2.00591,0,0,0,2-2V15A2.00591,2.00591,0,0,0,9,13Zm1,8a.94479.94479,0,0,1-1,1H2.915A1.50456,1.50456,0,0,0,2,21.086V15a.94479.94479,0,0,1,1-1H9a.94479.94479,0,0,1,1,1Zm13.00012.086H23V15a2.00591,2.00591,0,0,0-2-2H15a2.00591,2.00591,0,0,0-2,2v6a2.00591,2.00591,0,0,0,2,2h6.08539v.00012A1.50016,1.50016,0,1,0,23.00012,21.086ZM22,21.086a1.50456,1.50456,0,0,0-.915.914H15a.94479.94479,0,0,1-1-1V15a.94479.94479,0,0,1,1-1h6a.94479.94479,0,0,1,1,1Z"/>
</svg>
