<svg id="Layer_1" data-name="Layer 1" xmlns="http://www.w3.org/2000/svg" viewBox="0 0 24 24">
  <title>partner_program</title>
  <g>
    <path d="M12.23,14.78v-.56a1.32,1.32,0,0,0,.84-.35,1.08,1.08,0,0,0,.3-.8,1.16994,1.16994,0,0,0-.12-.54,1.13007,1.13007,0,0,0-.37-.4,2.68988,2.68988,0,0,0-.69-.32,1.78007,1.78007,0,0,1-.65-.31.61.61,0,0,1-.19-.5.67.67,0,0,1,.19-.5.73.73,0,0,1,.53-.18.65.65,0,0,1,.53.24,1,1,0,0,1,.19.66h.54a1.5,1.5,0,0,0-.27-.94,1.13,1.13,0,0,0-.77-.41V9.22h-.43v.64a1.19,1.19,0,0,0-.77.36,1.12,1.12,0,0,0-.28.78,1.09,1.09,0,0,0,.28.77,2,2,0,0,0,.91.5,1.69,1.69,0,0,1,.64.34.61.61,0,0,1,.19.45.62.62,0,0,1-.22.5.91.91,0,0,1-.6.19.8.8,0,0,1-.6-.22.86.86,0,0,1-.22-.62h-.55a1.31,1.31,0,0,0,.31.92,1.26,1.26,0,0,0,.86.39v.56Z"/>
    <path d="M16,12a4,4,0,0,1-3.89,4H12a4,4,0,0,1,0-8,3.93,3.93,0,0,1,2.83,1.18l.18.18A.251.251,0,1,0,15.36,9h0l-.18-.18A4.5,4.5,0,0,0,12,7.5h0A4.5,4.5,0,1,0,16.5,12v-.25a.25.25,0,0,0-.5,0Z"/>
    <circle cx="15.5" cy="7.75" r="0.5"/>
    <path d="M16.34,9.5a5,5,0,1,1-2.59-2.18h0a.50232.50232,0,1,0,.38-.93h0A4.54,4.54,0,0,0,12.52,6V4.95a2.5,2.5,0,1,0-1,0V6A5.92991,5.92991,0,0,0,9,6.8a6.00066,6.00066,0,0,0-.87.62l-.76-.76a2.5,2.5,0,1,0-.7.7l.76.76A6,6,0,0,0,6,11.5H4.95a2.5,2.5,0,1,0,0,1H6A6,6,0,0,0,11.5,18v1a2.5,2.5,0,1,0,1,0V18a5.88,5.88,0,0,0,3.37-1.4l.76.76a2.5,2.5,0,1,0,.7-.7l-.76-.76A6,6,0,0,0,18,12.5h1a2.5,2.5,0,1,0,0-1H18A6,6,0,0,0,17.23,9a.5.5,0,0,0-.66838-.23079L16.56,8.77a.51.51,0,0,0-.21.73Zm-5.84-7A1.5,1.5,0,1,1,12,4,1.5,1.5,0,0,1,10.5,2.5ZM4.22,6.34a1.5,1.5,0,1,1,2.12132-.00132L6.34,6.34h0A1.5,1.5,0,0,1,4.22,6.34ZM2.5,13.5A1.5,1.5,0,1,1,4,12,1.5,1.5,0,0,1,2.5,13.5Zm11,8A1.5,1.5,0,1,1,12,20,1.5,1.5,0,0,1,13.5,21.5Zm6.28-3.84a1.5,1.5,0,1,1-2.12132.00132L17.66,17.66h0A1.5,1.5,0,0,1,19.78,17.66ZM21.5,13.5A1.5,1.5,0,1,1,23,12,1.5,1.5,0,0,1,21.5,13.5Z"/>
  </g>
</svg>
