<svg id="Layer_1" data-name="Layer 1" xmlns="http://www.w3.org/2000/svg" viewBox="0 0 24 24">
  <title>phone numbers</title>
  <g>
    <circle cx="2.5" cy="17" r="1"/>
    <circle cx="2.5" cy="12" r="1"/>
    <circle cx="2.5" cy="7" r="1"/>
    <path d="M8.59,10.59l1.54-.7a.56829.56829,0,0,0,.37-.67l-.35-4.06a.69.69,0,0,0-.74-.62l-4,.35a.9214.9214,0,0,0-.301.0871A.57387.57387,0,0,0,4.84,5.23a.72.72,0,0,0-.09.43l.12,1.18a13.92719,13.92719,0,0,0,3.5493,8.22548L8.68,15.35l.2856.27334A13.92106,13.92106,0,0,0,17.19,19.17l1.18.12a.69741.69741,0,0,0,.42658-.06813A.55363.55363,0,0,0,19.03,18.93a2.00029,2.00029,0,0,0,.07-.35c.14-1,.35-4,.35-4a.59774.59774,0,0,0-.62-.74l-4.06-.35a.61874.61874,0,0,0-.67.37l-.7,1.54c-.10039.19454-.21324.29824-.43.21a10.27972,10.27972,0,0,1-2.58-1.68l-.17-.16-.16-.17A10.28018,10.28018,0,0,1,8.38,11C8.30965,10.84553,8.3676,10.67778,8.59,10.59Zm-1.11.05a6.893,6.893,0,0,0,.44229,1.10531A12.35369,12.35369,0,0,0,9.22,13.78c.11.14.23828.27235.40828.46235.17281.16963.48955.45632.70365.62183A11.1579,11.1579,0,0,0,12.2,16.06a4.67839,4.67839,0,0,0,1.14.44.78288.78288,0,0,0,.22818.00859A.35659.35659,0,0,0,13.79,16.38a1.35011,1.35011,0,0,0,.17-.24c.14-.25.73-1.6.76-1.67h0c.07422-.20258.24095-.15868.44-.14l3.13.27c.213.02732.31514.08858.29009.32871L18.58,14.93h0l-.27,3.13c-.02212.13148-.0469.27615-.24.27a14.38,14.38,0,0,1-8.35-3.11c-.17908-.15685-.32013-.27072-.5102-.45137A5.70892,5.70892,0,0,1,8.73,14.23,14.38,14.38,0,0,1,5.62,5.92c-.01747-.14705.13508-.23267.27-.24L9,5.41a.31.31,0,0,1,.33972.27711L9.34,5.69h0l.27,3.13c.02274.2508.06572.34475-.14.44h0c-.10287.04316-1.42.63-1.67.76a1.33992,1.33992,0,0,0-.24.17.31.31,0,0,0-.12.24A.92.92,0,0,0,7.48,10.64Z"/>
    <path d="M21,0H4A2,2,0,0,0,2,2V4H3V2A1,1,0,0,1,4,1H21a1,1,0,0,1,1,1V22a1,1,0,0,1-1,1H4a1,1,0,0,1-1-1V20H2v2a2,2,0,0,0,2,2H21a2,2,0,0,0,2-2V2A2,2,0,0,0,21,0Z"/>
  </g>
</svg>
