<svg id="Layer_1" data-name="Layer 1" xmlns="http://www.w3.org/2000/svg" viewBox="0 0 24 24">
  <title></title>
  <path d="M16,11h-.13A4,4,0,0,0,13,8.13.94.94,0,0,0,13,8a1,1,0,0,0-2,0,.94.94,0,0,0,0,.13A4,4,0,0,0,8.13,11H8a1,1,0,0,0,0,2h.13A4,4,0,0,0,11,15.87.94.94,0,0,0,11,16a1,1,0,0,0,2,0,.94.94,0,0,0,0-.13A4,4,0,0,0,15.87,13H16a1,1,0,0,0,0-2Zm-4,4a3,3,0,1,1,3-3A3,3,0,0,1,12,15Zm8.4577-6.084-.29651-.71582c1.41425-3.182,1.44843-3.56116,1.17969-3.82984L19.62964,2.65912c-.26868-.26874-.64789-.23456-3.82984,1.17969L15.084,3.5423C13.834.2923,13.59,0,13.21,0H10.79c-.38,0-.624.2923-1.874,3.5423l-.71582.29651C5.01825,2.42456,4.639,2.39038,4.37036,2.65912L2.65912,4.37036c-.26874.26868-.23456.64789,1.17969,3.82984L3.5423,8.916C.2923,10.166,0,10.41,0,10.79v2.42c0,.38.2923.624,3.5423,1.874l.29651.71582c-1.41425,3.182-1.44843,3.56116-1.17969,3.82984l1.71124,1.71124c.26868.26874.64789.23456,3.82984-1.17969l.71582.29651C10.166,23.7077,10.41,24,10.79,24h2.42c.38,0,.624-.2923,1.874-3.5423l.71582-.29651c3.182,1.41425,3.56116,1.44843,3.82984,1.17969l1.71124-1.71124c.26874-.26868.23456-.64789-1.17969-3.82984l.29651-.71582C23.7077,13.834,24,13.59,24,13.21V10.79C24,10.41,23.7077,10.166,20.4577,8.916ZM8.26855,4.94055a7.91787,7.91787,0,0,1,1.38569-.58941L11.05,1h1.9l1.39575,3.35114a7.91787,7.91787,0,0,1,1.38569.58941l3.37493-1.3905L20.45,4.89362,19.06714,8.25055a7.97358,7.97358,0,0,1,.56567,1.39722L23,11.05v1.9l-3.35114,1.39575a7.91787,7.91787,0,0,1-.58941,1.38569L20.45,19.10638,19.10638,20.45l-3.35693-1.38281a7.97358,7.97358,0,0,1-1.39722.56567L12.95,23h-1.9L9.64777,19.63281a7.97358,7.97358,0,0,1-1.39722-.56567L4.89362,20.45,3.55005,19.10638l1.3905-3.37493a7.91787,7.91787,0,0,1-.58941-1.38569L1,12.95v-1.9L4.36719,9.64777a7.97358,7.97358,0,0,1,.56567-1.39722L3.55005,4.89362,4.89362,3.55005Z"/>
</svg>
