<svg id="support" xmlns="http://www.w3.org/2000/svg" viewBox="0 0 24 24">
  <title>support_24px</title>
  <g id="_group_" data-name="&lt;group&gt;">
    <rect id="_contour_" data-name="&lt;contour&gt;" x="7" y="11" width="2" height="2"/>
    <path id="_contour_2" data-name="&lt;contour&gt;" d="M9.5,7c0,.36823-.4295.70575-.98169.71649C8.13879,7.72382,7.9989,7.73663,7,7.7L7.5,10H9V8.95966A2.17237,2.17237,0,0,0,11,7,2.29231,2.29231,0,0,0,8.5,5a4.93754,4.93754,0,0,0-3,1l1,1a2.85254,2.85254,0,0,1,2-.66669C9.05231,6.33331,9.5,6.63177,9.5,7Z"/>
    <path id="_composition_contour_" data-name="&lt;composition contour&gt;" d="M22.5,20.5a5.483,5.483,0,0,1,.23108-.54773A8.47733,8.47733,0,0,0,16.87854,7.12268,8.49434,8.49434,0,1,0,1.26892,12.95227,5.483,5.483,0,0,1,1.5,13.5C2,15.00085.48627,16.48358,0,17H7.14484A8.49163,8.49163,0,0,0,15.5,24H24C23.51373,23.48358,22,22.00085,22.5,20.5ZM2,16a3.24628,3.24628,0,0,0,.57593-2,3.326,3.326,0,0,0-.61475-1.84747A7.2203,7.2203,0,0,1,1,8.5,7.5,7.5,0,1,1,8.5,16Zm20,7H15.5a7.49847,7.49847,0,0,1-7.34485-6H8.5A8.5,8.5,0,0,0,17,8.5c0-.11786-.01288-.23242-.01764-.34912A7.499,7.499,0,0,1,23,15.5a7.2203,7.2203,0,0,1-.96118,3.65253A3.326,3.326,0,0,0,21.42407,21,3.24628,3.24628,0,0,0,22,23Z"/>
  </g>
</svg>
