<svg id="logo_c_youtube" xmlns="http://www.w3.org/2000/svg" viewBox="0 0 19.891 14.222">
  <defs>
    <style>
      .cls-1 {
        fill: #696868;
      }
    </style>
  </defs>
  <path id="Path_5115" data-name="Path 5115" class="cls-1" d="M14.222,12.811a.645.645,0,0,0-.348-.6L8.205,8.684a.677.677,0,0,0-.746-.05.687.687,0,0,0-.348.646v7.061a.687.687,0,0,0,.348.646.8.8,0,0,0,.348.1.538.538,0,0,0,.4-.149l5.669-3.531a.645.645,0,0,0,.348-.6Zm5.669,0v1.641a15.334,15.334,0,0,1-.1,1.542,15.867,15.867,0,0,1-.249,1.641,2.655,2.655,0,0,1-.8,1.343,2.43,2.43,0,0,1-1.343.646,68.228,68.228,0,0,1-7.459.3,68.228,68.228,0,0,1-7.459-.3,2.467,2.467,0,0,1-1.392-.646,2.368,2.368,0,0,1-.746-1.343Q.2,16.889.1,15.994A14.247,14.247,0,0,1,0,14.452q0-.646,0-1.641T0,11.17A14.247,14.247,0,0,1,.1,9.629q.1-.9.249-1.641a2.655,2.655,0,0,1,.8-1.343A2.43,2.43,0,0,1,2.486,6a68.228,68.228,0,0,1,7.459-.3A68.228,68.228,0,0,1,17.4,6a2.467,2.467,0,0,1,1.392.646,2.368,2.368,0,0,1,.746,1.343q.149.746.249,1.641a14.247,14.247,0,0,1,.1,1.542v1.641Z" transform="translate(0 -5.7)"/>
</svg>
