<svg id="logo_twitter" xmlns="http://www.w3.org/2000/svg" viewBox="0 0 17.504 14.222">
  <defs>
    <style>
      .cls-1 {
        fill: #696868;
      }
    </style>
  </defs>
  <path id="Path_5116" data-name="Path 5116" class="cls-1" d="M20,7.391a6.938,6.938,0,0,1-1.84,1.84,1.745,1.745,0,0,1,.05.5,9.685,9.685,0,0,1-.448,2.884,10.86,10.86,0,0,1-1.293,2.735,11.349,11.349,0,0,1-2.039,2.337A8.841,8.841,0,0,1,11.6,19.325a10.4,10.4,0,0,1-3.58.6A9.806,9.806,0,0,1,2.5,18.281a6.822,6.822,0,0,0,.845.05,7.273,7.273,0,0,0,4.476-1.492,3.556,3.556,0,0,1-2.089-.746,3.95,3.95,0,0,1-1.293-1.74,5.7,5.7,0,0,0,.7.05,2.968,2.968,0,0,0,.945-.149A3.387,3.387,0,0,1,4.042,13.01,3.8,3.8,0,0,1,3.2,10.723h0a3.9,3.9,0,0,0,1.641.448A3.724,3.724,0,0,1,3.644,9.877a3.039,3.039,0,0,1-.4-1.691,3.872,3.872,0,0,1,.448-1.84A9.923,9.923,0,0,0,6.976,9.032,9.93,9.93,0,0,0,11.1,10.126,3.9,3.9,0,0,1,11,9.28a3.566,3.566,0,0,1,3.58-3.58,3.416,3.416,0,0,1,2.636,1.144A8.282,8.282,0,0,0,19.507,6a3.39,3.39,0,0,1-1.591,1.939A6.961,6.961,0,0,0,20,7.391Z" transform="translate(-2.5 -5.7)"/>
</svg>
