<svg id="logo_encryptotel" xmlns="http://www.w3.org/2000/svg" viewBox="0 0 118 40">
  <title>logo_encryptotel_my</title>
  <g id="logo_encryptotel_my" data-name="logo encryptotel my">
    <g id="logo">
      <circle id="Ellipse_529" data-name="Ellipse 529" cx="4" cy="36" r="4" fill="#00b0ba"/>
      <circle id="Ellipse_530" data-name="Ellipse 530" cx="36" cy="4" r="4" fill="#00b0ba"/>
      <circle id="Ellipse_531" data-name="Ellipse 531" cx="4" cy="20" r="4" fill="#00b0ba"/>
      <circle id="Ellipse_532" data-name="Ellipse 532" cx="4" cy="4" r="4" fill="#00b0ba"/>
      <circle id="Ellipse_533" data-name="Ellipse 533" cx="20" cy="4" r="4" fill="#00b0ba"/>
      <circle id="Ellipse_534" data-name="Ellipse 534" cx="20" cy="20" r="4" fill="#00b0ba"/>
      <circle id="Ellipse_535" data-name="Ellipse 535" cx="20" cy="36" r="4" fill="#00b0ba"/>
      <circle id="Ellipse_536" data-name="Ellipse 536" cx="36" cy="20" r="4" fill="#00b0ba"/>
      <circle id="Ellipse_537" data-name="Ellipse 537" cx="36" cy="36" r="4" fill="#00b0ba"/>
      <rect id="Rectangle_18231" data-name="Rectangle 18231" x="9" y="3.25" width="6" height="1.5" fill="#00b0ba"/>
      <rect id="Rectangle_18232" data-name="Rectangle 18232" x="25" y="3.25" width="6" height="1.5" fill="#00b0ba"/>
      <rect id="Rectangle_18233" data-name="Rectangle 18233" x="25" y="35.25" width="6" height="1.5" fill="#00b0ba"/>
      <rect id="Rectangle_18234" data-name="Rectangle 18234" x="19.25" y="25" width="1.5" height="6" fill="#00b0ba"/>
      <rect id="Rectangle_18235" data-name="Rectangle 18235" x="11.25031" y="6.00097" width="1.5" height="12" transform="translate(-4.97116 12.00051) rotate(-45)" fill="#00b0ba"/>
    </g>
    <g id="text">
      <g id="EncryptoTel" style="isolation: isolate">
        <g style="isolation: isolate">
          <path d="M62.4082,14.96191,62.40234,16H57.062V7.38379h5.34033V8.42188H58.34619v2.73046h3.26319v1.002H58.34619v2.80761Z" fill="#222"/>
          <path d="M64.6875,10.75a4.34212,4.34212,0,0,1,.41406-.38379,2.61122,2.61122,0,0,1,.459-.29687A2.44715,2.44715,0,0,1,66.083,9.877a2.48626,2.48626,0,0,1,.59668-.06933,2.18643,2.18643,0,0,1,.88476.168,1.76241,1.76241,0,0,1,.63965.47168,2.03721,2.03721,0,0,1,.38965.72851,3.18016,3.18016,0,0,1,.13281.94238V16H67.55078V12.11816A1.55332,1.55332,0,0,0,67.25,11.10059a1.12448,1.12448,0,0,0-.918-.36231,1.73446,1.73446,0,0,0-.84277.21289,2.79812,2.79812,0,0,0-.72949.5791V16H63.58984V9.9043H64.292a.28476.28476,0,0,1,.30567.2334Z" fill="#222"/>
          <path d="M74.57617,11.044a.66975.66975,0,0,1-.10547.10546.24014.24014,0,0,1-.14648.03907.351.351,0,0,1-.20117-.0752,2.70315,2.70315,0,0,0-.26367-.16211,2.30487,2.30487,0,0,0-.38477-.16211,1.77928,1.77928,0,0,0-.55469-.07519,1.75435,1.75435,0,0,0-.76172.15625,1.44987,1.44987,0,0,0-.54882.44433,2.03354,2.03354,0,0,0-.334.70117,3.50145,3.50145,0,0,0-.11328.93067,3.44725,3.44725,0,0,0,.11914.95117,2.06223,2.06223,0,0,0,.34277.70117,1.439,1.439,0,0,0,.54.43262,1.66963,1.66963,0,0,0,.708.14648,1.77405,1.77405,0,0,0,.624-.09277,2.01137,2.01137,0,0,0,.40821-.20117,2.84362,2.84362,0,0,0,.26953-.20117.34237.34237,0,0,1,.22265-.09278.25667.25667,0,0,1,.22168.1084l.33594.43164a2.27081,2.27081,0,0,1-.47168.43848,2.671,2.671,0,0,1-.55469.29394,3.10464,3.10464,0,0,1-.61523.168,3.88767,3.88767,0,0,1-.65039.05371,2.69562,2.69562,0,0,1-1.06445-.21,2.40858,2.40858,0,0,1-.85938-.6123,2.93107,2.93107,0,0,1-.57226-.98633,3.90569,3.90569,0,0,1-.21-1.3291,4.02809,4.02809,0,0,1,.18848-1.25391,2.80182,2.80182,0,0,1,.55859-.99316,2.58183,2.58183,0,0,1,.90821-.6543,3.0515,3.0515,0,0,1,1.23633-.2373,2.95493,2.95493,0,0,1,1.15234.21,2.82477,2.82477,0,0,1,.8877.59472Z" fill="#222"/>
          <path d="M77.14941,11.07422a2.8041,2.8041,0,0,1,.708-.94238,1.6134,1.6134,0,0,1,1.3711-.29688.99168.99168,0,0,1,.30957.13477l-.07813.88183a.19076.19076,0,0,1-.19824.16211,1.46813,1.46813,0,0,1-.25195-.03222,1.83658,1.83658,0,0,0-.36036-.03321,1.402,1.402,0,0,0-.498.08106,1.17111,1.17111,0,0,0-.38672.23925,1.63093,1.63093,0,0,0-.30274.39063,3.98868,3.98868,0,0,0-.24609.52441V16h-1.1709V9.9043h.67285a.37139.37139,0,0,1,.26075.06836.45.45,0,0,1,.09863.24316Z" fill="#222"/>
          <path d="M85.77246,9.9043,82.3877,17.76953a.483.483,0,0,1-.14356.2041.41179.41179,0,0,1-.26367.07227h-.87012l1.11524-2.42969-2.502-5.71191h1.02051a.35189.35189,0,0,1,.23438.07129.42269.42269,0,0,1,.11914.16211l1.54882,3.66015c.03125.0918.0625.18555.09278.2793s.05469.18652.07519.2793c.02735-.09668.05762-.19141.08985-.28516s.06543-.1875.10156-.2793L84.5,10.1377a.39642.39642,0,0,1,.13184-.168.33717.33717,0,0,1,.2041-.06543Z" fill="#222"/>
          <path d="M87.77539,10.81641a3.68983,3.68983,0,0,1,.41113-.417,2.61138,2.61138,0,0,1,.47168-.32421,2.45764,2.45764,0,0,1,.53614-.21A2.40055,2.40055,0,0,1,89.80371,9.79a2.154,2.154,0,0,1,.94531.2041,1.9845,1.9845,0,0,1,.72266.59961,2.91018,2.91018,0,0,1,.46484.97852,4.90208,4.90208,0,0,1,.165,1.33789A4.14589,4.14589,0,0,1,91.919,14.167a3.08757,3.08757,0,0,1-.52247,1.00489,2.3931,2.3931,0,0,1-1.92871.9121,2.21476,2.21476,0,0,1-.93554-.17968,2.24425,2.24425,0,0,1-.69629-.50391V18.0459H86.666V9.9043h.70214a.286.286,0,0,1,.30567.2334ZM87.83594,14.5a1.65316,1.65316,0,0,0,.62109.52832,1.8032,1.8032,0,0,0,.74707.14941,1.47438,1.47438,0,0,0,1.24512-.5791,2.75029,2.75029,0,0,0,.44043-1.68847A4.33824,4.33824,0,0,0,90.791,11.917a1.89572,1.89572,0,0,0-.28809-.67187,1.14688,1.14688,0,0,0-.46484-.38379,1.52082,1.52082,0,0,0-.624-.12305,1.67654,1.67654,0,0,0-.88574.22754,2.52869,2.52869,0,0,0-.69238.64844Z" fill="#222"/>
          <path d="M95.24609,16.0957a1.50659,1.50659,0,0,1-1.13769-.41406A1.6352,1.6352,0,0,1,93.71,14.5V10.85156h-.708a.22785.22785,0,0,1-.24023-.25195V10.126l.99023-.1377.26367-1.81836a.28061.28061,0,0,1,.09278-.15918.26855.26855,0,0,1,.17676-.05664h.59472V10h1.72754v.85156H94.87988v3.57032a.72963.72963,0,0,0,.17676.5371.61221.61221,0,0,0,.45313.17676.82418.82418,0,0,0,.27929-.042,1.06456,1.06456,0,0,0,.2002-.09277c.05664-.03418.10449-.06543.14453-.09278a.193.193,0,0,1,.10742-.042.14866.14866,0,0,1,.09375.02637.35154.35154,0,0,1,.06836.08789l.34863.56348a2.02065,2.02065,0,0,1-.68457.4082A2.39149,2.39149,0,0,1,95.24609,16.0957Z" fill="#222"/>
          <path d="M100.24414,9.80762a3.2124,3.2124,0,0,1,1.21484.21972,2.51792,2.51792,0,0,1,.92383.62989,2.795,2.795,0,0,1,.585.99023,4.24385,4.24385,0,0,1,0,2.60059,2.778,2.778,0,0,1-.585.99023,2.55911,2.55911,0,0,1-.92383.627,3.499,3.499,0,0,1-2.43554,0,2.58749,2.58749,0,0,1-.92676-.627,2.79141,2.79141,0,0,1-.5918-.99023,4.1869,4.1869,0,0,1,0-2.60059,2.80859,2.80859,0,0,1,.5918-.99023,2.54545,2.54545,0,0,1,.92676-.62989A3.22536,3.22536,0,0,1,100.24414,9.80762Zm0,5.36426a1.49247,1.49247,0,0,0,1.29-.582,2.73,2.73,0,0,0,.42578-1.63769,2.74907,2.74907,0,0,0-.42578-1.6416,1.492,1.492,0,0,0-1.29-.585,1.51259,1.51259,0,0,0-1.30469.585,2.73486,2.73486,0,0,0-.42968,1.6416,2.7159,2.7159,0,0,0,.42968,1.63769A1.51317,1.51317,0,0,0,100.24414,15.17188Z" fill="#222"/>
          <path d="M109.11719,8.45215h-2.73535V16h-1.27246V8.45215h-2.74805V7.38379h6.75586Z" fill="#222"/>
          <path d="M113.666,15.12988a2.33414,2.33414,0,0,1-.49805.43555,2.8889,2.8889,0,0,1-.60059.29687,3.63323,3.63323,0,0,1-.65625.168,4.23772,4.23772,0,0,1-.66894.05371,3.14276,3.14276,0,0,1-1.167-.21289,2.58873,2.58873,0,0,1-.93067-.624,2.84549,2.84549,0,0,1-.61133-1.02051,4.11312,4.11312,0,0,1-.21972-1.40039,3.476,3.476,0,0,1,.19824-1.18555,2.86065,2.86065,0,0,1,.56738-.957,2.62686,2.62686,0,0,1,.90235-.6416,2.96049,2.96049,0,0,1,1.20019-.23437,2.81943,2.81943,0,0,1,1.0293.18359,2.27963,2.27963,0,0,1,.8125.53125,2.44242,2.44242,0,0,1,.53711.85742,3.24687,3.24687,0,0,1,.19531,1.16407.75846.75846,0,0,1-.05957.36328A.246.246,0,0,1,113.47363,13h-3.99609a3.3258,3.3258,0,0,0,.15625.95117,1.91551,1.91551,0,0,0,.38086.67481,1.52088,1.52088,0,0,0,.5791.40234,2.03527,2.03527,0,0,0,.75.13184,2.26317,2.26317,0,0,0,.6748-.08985,3.26746,3.26746,0,0,0,.49219-.19531c.1377-.07031.25391-.13477.34766-.19531a.48817.48817,0,0,1,.249-.08985.25844.25844,0,0,1,.22266.1084Zm-.96582-2.85547a1.99245,1.99245,0,0,0-.09961-.64257,1.45119,1.45119,0,0,0-.291-.50977,1.31923,1.31923,0,0,0-.46777-.33594,1.77794,1.77794,0,0,0-1.79688.30567,2.06026,2.06026,0,0,0-.53711,1.18261Z" fill="#222"/>
          <path d="M116.21582,7.14355V16h-1.17676V7.14355Z" fill="#222"/>
        </g>
      </g>
      <g id="_.My" data-name=" .My" style="isolation: isolate">
        <g style="isolation: isolate">
          <path d="M56.62988,32.29785a.78622.78622,0,0,1,.06006-.30566.79683.79683,0,0,1,.165-.252.77934.77934,0,0,1,.561-.23437.75714.75714,0,0,1,.30615.06348.80853.80853,0,0,1,.42285.42285.75459.75459,0,0,1,.063.30566.77361.77361,0,0,1-.063.3125.82414.82414,0,0,1-.1709.252.78155.78155,0,0,1-.5581.22754.80358.80358,0,0,1-.312-.05957.74733.74733,0,0,1-.249-.168.7991.7991,0,0,1-.2251-.56445Z" fill="#00b0ba"/>
          <path d="M68.9541,24.38379V33H67.83789V26.86816c0-.09179.00293-.19043.00977-.29394.00586-.10449.01172-.21.0205-.31836L65,31.51758a.48831.48831,0,0,1-.46191.29394h-.18067a.47639.47639,0,0,1-.45508-.29394l-2.92187-5.2793a6.06031,6.06031,0,0,1,.03515.62988V33H59.89453V24.38379h.94727a.83182.83182,0,0,1,.26172.0332.37487.37487,0,0,1,.17675.18262l2.87989,5.16016c.05566.10449.10742.21386.15625.33007q.07177.17432.13769.34864a5.84674,5.84674,0,0,1,.294-.68457l2.82617-5.1543a.3524.3524,0,0,1,.1709-.18262.825.825,0,0,1,.26074-.0332Z" fill="#00b0ba"/>
          <path d="M76.04,26.9043l-3.38379,7.86523a.48442.48442,0,0,1-.14453.2041.40811.40811,0,0,1-.26367.07227h-.87012l1.11621-2.42969-2.502-5.71191h1.01953a.35012.35012,0,0,1,.23437.07129.42552.42552,0,0,1,.12012.16211l1.54785,3.66015c.03223.0918.0625.18555.09375.2793.0293.09375.05469.18652.07422.2793.02735-.09668.05859-.19141.08985-.28516.03222-.09375.0664-.1875.10156-.2793l1.49414-3.65429a.39123.39123,0,0,1,.13281-.168.33433.33433,0,0,1,.20313-.06543Z" fill="#00b0ba"/>
        </g>
      </g>
    </g>
  </g>
</svg>
