<svg id="logo_c_medium" xmlns="http://www.w3.org/2000/svg" viewBox="0 0 16.831 14.222">
  <defs>
    <style>
      .cls-1 {
        fill: #696868;
      }
    </style>
  </defs>
  <path id="Path_5112" data-name="Path 5112" class="cls-1" d="M5.6,5.751V16.775a.615.615,0,0,1-.126.379.4.4,0,0,1-.337.168.678.678,0,0,1-.295-.084L.463,15.05a.684.684,0,0,1-.337-.295A.812.812,0,0,1,0,14.335V3.6a.747.747,0,0,1,.084-.337.241.241,0,0,1,.295-.126A1.045,1.045,0,0,1,.8,3.31l4.8,2.4Zm.631.968,5.007,8.121L6.227,12.315v-5.6Zm10.6.168v9.888a.615.615,0,0,1-.126.379.361.361,0,0,1-.379.126,1.5,1.5,0,0,1-.421-.126L11.74,15.092Zm-.042-1.136-2.4,3.913q-2.4,3.913-2.819,4.586L7.911,8.318l3.03-4.965a.566.566,0,0,1,.5-.252.794.794,0,0,1,.252.042l5.049,2.525A.121.121,0,0,1,16.789,5.751Z" transform="translate(0 -3.1)"/>
</svg>
