<svg xmlns="http://www.w3.org/2000/svg" viewBox="0 0 20.258 12.035">
  <defs>
    <style>
      .cls-1 {
        fill: #696868;
      }
    </style>
  </defs>
  <path id="logo_c_vk" class="cls-1" d="M19.791,8.929c.142-.475,0-.808-.665-.808H16.909a.955.955,0,0,0-.965.633,18.239,18.239,0,0,1-2.723,4.528c-.523.523-.744.68-1.028.68-.143,0-.348-.158-.348-.633v-4.4c0-.57-.158-.808-.633-.808H7.726a.547.547,0,0,0-.57.507c0,.538.792.665.887,2.153v3.262c0,.713-.127.839-.412.839-.744,0-2.58-2.755-3.657-5.921-.222-.585-.428-.838-1-.838H.76c-.633,0-.76.3-.76.633,0,.586.744,3.5,3.5,7.346a8.652,8.652,0,0,0,6.761,4.053c1.41,0,1.583-.317,1.583-.855V17.3c0-.633.127-.76.586-.76.332,0,.887.158,2.2,1.425,1.5,1.5,1.757,2.185,2.6,2.185h2.217c.633,0,.95-.317.76-.935a9.859,9.859,0,0,0-1.868-2.6c-.522-.617-1.3-1.267-1.52-1.6-.332-.427-.237-.617,0-.982C16.814,14.027,19.521,10.227,19.791,8.929Z" transform="translate(0 -8.118)"/>
</svg>
