<svg xmlns="http://www.w3.org/2000/svg" viewBox="0 0 48.03 48.03"><defs><style>.cls-1{fill:none;}</style></defs><title>___Ресурс 10</title><g id="Слой_2" data-name="Слой 2"><g id="Слой_1-2" data-name="Слой 1"><g id="Слой_2-2" data-name="Слой 2"><g id="Слой_1-2-2" data-name="Слой 1-2"><rect id="_bg_" data-name="&lt;bg&gt;" class="cls-1" x="0.01" y="0.01" width="48" height="48"/><path d="M23,8a1,1,0,1,0,0,2H39a1,1,0,1,0,0-2Z"/><circle cx="9.01" cy="9.01" r="1"/><circle cx="15.01" cy="9.01" r="1"/><path d="M39,24a1,1,0,0,0,0-2H23a1,1,0,1,0,0,2Z"/><circle cx="9.01" cy="23.01" r="1"/><circle cx="15.01" cy="23.01" r="1"/><path d="M23,36a1,1,0,1,0,0,2H39a1,1,0,1,0,0-2Z"/><circle cx="9.01" cy="37.01" r="1"/><circle cx="15.01" cy="37.01" r="1"/><path d="M46,42.19V37a1,1,0,0,0-2,0v5.18A3,3,0,0,0,42.19,44H5.83A3,3,0,0,0,4,42.19V32H44a2,2,0,0,0,2-2V18a2,2,0,0,0-2-2H4V5.83A3,3,0,0,0,5.83,4H42.19A3,3,0,0,0,44,5.83V11a1,1,0,1,0,2,0V5.83A3,3,0,1,0,42.19,2H5.83A3,3,0,1,0,2,5.83V25a1,1,0,0,0,2,0V18H44V30H4a2,2,0,0,0-2,2V42.19A3,3,0,1,0,5.83,46H42.19A3,3,0,1,0,46,42.19Z"/></g></g></g></g></svg>