<svg xmlns="http://www.w3.org/2000/svg" viewBox="0 0 24 24"><switch><g><path fill="none" d="M0 0h24v24H0z"/><circle cx="15.5" cy="22.5" r="1.5"/><circle cx="8.5" cy="22.5" r="1.5"/><path d="M10.5 13h5c.3 0 .5-.2.5-.5s-.2-.5-.5-.5h-5c-.3 0-.5.2-.5.5s.2.5.5.5z"/><path d="M20.5 6h-10c-.3 0-.5.2-.5.5s.2.5.5.5H20l-1.8 8h-10L5 1.3c-.1-.2-.3-.3-.5-.3h-4c-.3 0-.5.2-.5.5s.2.5.5.5h3.6L8 18.7c.1.2.3.3.5.3H15c.3 0 .5-.2.5-.5s-.2-.5-.5-.5H8.9l-.4-2h10c.2 0 .4-.1.5-.3l2-9v-.2c0-.3-.2-.5-.5-.5z"/></g></switch></svg>