<?xml version="1.0" encoding="utf-8"?>
<!-- Generator: Adobe Illustrator 21.1.0, SVG Export Plug-In . SVG Version: 6.00 Build 0)  -->
<svg version="1.1" id="exit" xmlns="http://www.w3.org/2000/svg" xmlns:xlink="http://www.w3.org/1999/xlink" x="0px" y="0px"
	 viewBox="0 0 24 24" style="enable-background:new 0 0 24 24;" xml:space="preserve">
<path id="_x3C_exit_x3E_" d="M23.8,11.5L21,8.8c-0.2-0.2-0.6-0.1-0.8,0.1c-0.2,0.2-0.2,0.5,0,0.7l1.8,1.9h-6v1h6l-1.8,1.9
	c-0.2,0.2-0.1,0.6,0.1,0.8c0.2,0.2,0.5,0.2,0.7,0l2.8-2.7C24.1,12.2,24.1,11.8,23.8,11.5z M12,23C5.9,23,1,18.1,1,12S5.9,1,12,1
	c3.9,0,7.6,2.1,9.5,5.5L22.4,6C19,0.2,11.7-1.7,5.9,1.6S-1.7,12.3,1.6,18s10.7,7.7,16.4,4.3c1.8-1,3.3-2.5,4.3-4.3l-0.9-0.5
	C19.5,20.9,15.9,23,12,23z"/>
</svg>
