<svg xmlns="http://www.w3.org/2000/svg" viewBox="0 0 16 16"><defs><style>.cls-1{fill:none;}</style></defs><title>general_16px</title><g id="Слой_2" data-name="Слой 2"><g id="general_16px"><g id="general_16px-2" data-name="general_16px"><rect id="_bg_" data-name="&lt;bg&gt;" class="cls-1" width="16" height="16"/><path d="M.8,14.11A8.63,8.63,0,0,1,5.72,7.29h0A3.9,3.9,0,0,0,10.59,7a7.73,7.73,0,0,1,3.67,2.58,11.94,11.94,0,0,1,1.22.49,8.69,8.69,0,0,0-4.35-3.63A4,4,0,0,0,6.47.31.35.35,0,1,0,6.74,1h0A3.3,3.3,0,1,1,5,2.74a.35.35,0,1,0-.64-.27,3.92,3.92,0,0,0,0,3.06,4,4,0,0,0,.83,1.26h0A9.58,9.58,0,0,0,0,15.5v0A10.37,10.37,0,0,1,.8,14.11Z"/></g></g></g></svg>