<svg xmlns="http://www.w3.org/2000/svg" viewBox="0 0 16 16"><defs><style>.cls-1{fill:none;}</style></defs><title>icon_key_16px_3</title><g id="Слой_2" data-name="Слой 2"><g id="icon_key_16px_3"><rect id="_bg_" data-name="&lt;bg&gt;" class="cls-1" width="16" height="16"/><path d="M11.5,0A4.48,4.48,0,0,0,8.09,7.41l-8,8a.37.37,0,0,0,0,.5.37.37,0,0,0,.5,0l1.64-1.64L3.87,15.9a.37.37,0,0,0,.5,0,.35.35,0,0,0,0-.5L2.73,13.76,4,12.49,6.4,14.9a.35.35,0,0,0,.5-.5L4.49,12l4.1-4.09A4.49,4.49,0,1,0,11.5,0Zm0,8.3a3.8,3.8,0,1,1,3.8-3.8A3.8,3.8,0,0,1,11.5,8.3Z"/></g></g></svg>