<?xml version="1.0" encoding="utf-8"?>
<!-- Generator: Adobe Illustrator 21.1.0, SVG Export Plug-In . SVG Version: 6.00 Build 0)  -->
<svg version="1.1" id="Слой_1" xmlns="http://www.w3.org/2000/svg" xmlns:xlink="http://www.w3.org/1999/xlink" x="0px" y="0px"
	 viewBox="0 0 24 24" style="enable-background:new 0 0 24 24;" xml:space="preserve">
<path d="M13.5,7C13.2,7,13,7.2,13,7.5v9c0,0.3,0.2,0.5,0.5,0.5s0.5-0.2,0.5-0.5v-9C14,7.2,13.8,7,13.5,7z M10.5,7
	C10.2,7,10,7.2,10,7.5v9c0,0.3,0.2,0.5,0.5,0.5s0.5-0.2,0.5-0.5v-9C11,7.2,10.8,7,10.5,7z M12,0C5.4,0,0,5.4,0,12s5.4,12,12,12
	s12-5.4,12-12S18.6,0,12,0z M12,23C5.9,23,1,18.1,1,12S5.9,1,12,1s11,4.9,11,11S18.1,23,12,23z"/>
</svg>
