<?xml version="1.0" encoding="utf-8"?>
<!-- Generator: Adobe Illustrator 21.1.0, SVG Export Plug-In . SVG Version: 6.00 Build 0)  -->
<svg version="1.1" id="Слой_1" xmlns="http://www.w3.org/2000/svg" xmlns:xlink="http://www.w3.org/1999/xlink" x="0px" y="0px"
	 viewBox="0 0 24 24" style="enable-background:new 0 0 24 24;" xml:space="preserve">
<path d="M18.4,11.6L9.7,6.4C9.5,6.3,9.2,6.4,9.1,6.6C9,6.7,9,6.8,9,6.8v10.3c0,0.3,0.2,0.5,0.5,0.5c0.1,0,0.2,0,0.2-0.1l8.6-5.1
	c0.1-0.1,0.2-0.2,0.2-0.4l0,0C18.6,11.8,18.5,11.7,18.4,11.6z M10,16.3V7.7l7.2,4.3L10,16.3z M12,0C5.4,0,0,5.4,0,12s5.4,12,12,12
	s12-5.4,12-12S18.6,0,12,0z M12,23C5.9,23,1,18.1,1,12S5.9,1,12,1s11,4.9,11,11S18.1,23,12,23z"/>
</svg>
