<?xml version="1.0" encoding="utf-8"?>
<!-- Generator: Adobe Illustrator 22.1.0, SVG Export Plug-In . SVG Version: 6.00 Build 0)  -->
<svg version="1.1" id="Слой_1" xmlns:svg="http://www.w3.org/2000/svg"
	 xmlns="http://www.w3.org/2000/svg" xmlns:xlink="http://www.w3.org/1999/xlink" x="0px" y="0px" viewBox="0 0 16 16"
	 style="enable-background:new 0 0 16 16;" xml:space="preserve">
<style type="text/css">
	.st0{fill:#27C1C1;}
	.st1{fill:#CAEDE6;fill-opacity:0.8;}
	.st2{fill:#C4E8E1;fill-opacity:0.8;}
	.st3{fill:#B7E2DA;fill-opacity:0.8;}
	.st4{fill:#B1E0D8;fill-opacity:0.8;}
	.st5{fill:#99D6CD;fill-opacity:0.8;}
	.st6{fill:#84CEC5;fill-opacity:0.8;}
	.st7{fill:#61C1B8;fill-opacity:0.8;}
	.st8{fill:#55BFB7;fill-opacity:0.8;}
	.st9{fill:#48BCB6;fill-opacity:0.8;}
	.st10{fill:#3FBCB8;fill-opacity:0.8;}
	.st11{fill:#27C1C1;fill-opacity:0.9;}
</style>
<g>
	<path class="st0" d="M7.4,0h1v5h-1C7.4,5,7.4,0,7.4,0z"/>
	<path class="st1" d="M11.5,0.8l0.9,0.5L9.9,5.6L9,5.1L11.5,0.8z"/>
	<path class="st2" d="M14.7,3.5l0.5,0.9l-4.3,2.5L10.3,6L14.7,3.5z"/>
	<path class="st3" d="M16,7.4v1h-5v-1C11,7.4,16,7.4,16,7.4z"/>
	<path class="st4" d="M15.2,11.5l-0.5,0.9l-4.3-2.5L10.9,9L15.2,11.5z"/>
	<path class="st5" d="M12.5,14.7l-0.9,0.5l-2.5-4.3l0.9-0.5L12.5,14.7z"/>
	<path class="st6" d="M8.6,16h-1v-5h1V16z"/>
	<path class="st7" d="M4.5,15.2l-0.9-0.5l2.5-4.3L7,10.9L4.5,15.2z"/>
	<path class="st8" d="M1.3,12.5l-0.5-0.9l4.3-2.5L5.7,10L1.3,12.5z"/>
	<path class="st9" d="M0,8.6v-1h5v1H0z"/>
	<path class="st10" d="M0.8,4.5l0.5-0.9l4.3,2.5L5.1,7L0.8,4.5z"/>
	<path class="st11" d="M3.5,1.3l0.9-0.5l2.5,4.3L6,5.7L3.5,1.3z"/>
	
		<animateTransform attributeName="transform" type="rotate" values="0 64 64;30 64 64;60 64 64;90 64 64;120 64 64;150 64 64;180 64 64;210 64 64;240 64 64;270 64 64;300 64 64;330 64 64" calcMode="discrete" dur="1200ms" repeatCount="indefinite"></animateTransform>
</g>
</svg>
