<?xml version="1.0" encoding="utf-8"?>
<!-- Generator: Adobe Illustrator 17.1.0, SVG Export Plug-In . SVG Version: 6.00 Build 0)  -->
<!DOCTYPE svg PUBLIC "-//W3C//DTD SVG 1.0//EN" "http://www.w3.org/TR/2001/REC-SVG-20010904/DTD/svg10.dtd">
<svg version="1.0" id="Слой_1" xmlns="http://www.w3.org/2000/svg" xmlns:xlink="http://www.w3.org/1999/xlink" x="0px" y="0px"
	 viewBox="0 0 24 24" enable-background="new 0 0 24 24" xml:space="preserve">
<title>_Ресурс 207</title>
<g id="Слой_2">
	<g id="Слой_1-2">
		<rect id="bg" fill="none" width="24" height="24"/>
		<circle cx="5.5" cy="9.5" r="1.5"/>
		<circle cx="12" cy="9.5" r="1.5"/>
		<circle cx="18.5" cy="9.5" r="1.5"/>
		<circle cx="5.5" cy="14.5" r="1.5"/>
		<circle cx="12" cy="14.5" r="1.5"/>
		<circle cx="18.5" cy="14.5" r="1.5"/>
		<circle cx="5.5" cy="19.5" r="1.5"/>
		<circle cx="12" cy="19.5" r="1.5"/>
		<circle cx="18.5" cy="19.5" r="1.5"/>
		<path d="M21,3c-0.3,1.4-1.6,2.2-2.9,2c-1-0.2-1.8-1-2-2H7.9C7.7,4.4,6.4,5.2,5,5C4,4.8,3.2,4,3,3H0v21h24V3H21z M23,23H1V6h22V23z
			"/>
		<path d="M5.5,1L5.5,1C6.3,1,7,1.7,7,2.5l0,0C7,3.3,6.3,4,5.5,4l0,0C4.7,4,4,3.3,4,2.5l0,0C4,1.7,4.7,1,5.5,1z"/>
		<path d="M18.5,1L18.5,1C19.3,1,20,1.7,20,2.5l0,0C20,3.3,19.3,4,18.5,4l0,0C17.7,4,17,3.3,17,2.5l0,0C17,1.7,17.7,1,18.5,1z"/>
	</g>
</g>
</svg>
