<svg xmlns="http://www.w3.org/2000/svg" viewBox="0 0 16 16"><defs><style>.cls-1{fill:none;}</style></defs><title>security_16px</title><g id="Слой_2" data-name="Слой 2"><g id="icon_security_16px" data-name="icon security_16px"><rect id="_bg_" data-name=" bg " class="cls-1" width="16" height="16"/><path d="M9.62,9a1.62,1.62,0,1,0-2.37,1.43A12.84,12.84,0,0,0,7,12a.71.71,0,0,0,.67.67h.66A.71.71,0,0,0,9,12a12.84,12.84,0,0,0-.25-1.57A1.59,1.59,0,0,0,9.62,9ZM8.16,10h0l.24,2H7.6l.24-2h0a1,1,0,1,1,.32,0Z"/><path d="M13.3,6H13V5A5.14,5.14,0,0,0,8,0,5.14,5.14,0,0,0,3,5V6H2.7A1.7,1.7,0,0,0,1,7.7V9a6.84,6.84,0,0,0,7,7,6.84,6.84,0,0,0,7-7V7.7A1.7,1.7,0,0,0,13.3,6ZM3.7,5A4.38,4.38,0,0,1,8,.7,4.38,4.38,0,0,1,12.3,5V6H3.7ZM14.3,9A6.05,6.05,0,0,1,8,15.3,6.05,6.05,0,0,1,1.7,9V7.7a1,1,0,0,1,1-1H13.3a1,1,0,0,1,1,1Z"/><rect x="4.75" y="4.35" width="2.5" height="0.7" rx="0.35" ry="0.35" transform="translate(1.3 10.7) rotate(-90)"/><rect x="8.75" y="4.35" width="2.5" height="0.7" rx="0.35" ry="0.35" transform="translate(5.3 14.7) rotate(-90)"/></g></g></svg>