<svg xmlns="http://www.w3.org/2000/svg" viewBox="0 0 100 100">
  <defs>
    <style>.waves-1{fill:none;}.waves-2{fill:#3db6d3;}.waves-3{fill:#e2e1e1;}</style>
  </defs>
  <title>Waves_100px</title>
  <g id="Слой_2" data-name="Слой 2">
    <g id="Waves_100px">
      <rect id="_bg_" data-name="&lt;bg&gt;" class="waves-1" width="100" height="100"/>
      <path class="waves-2"
            d="M82.56,28.14,57.77,3.34a11,11,0,0,0-15.57,0L17.43,28.1a3.69,3.69,0,0,0,0,5.19l7.51,7.51,5,4.62a3.84,3.84,0,0,0,5.24,0l10-9.25a7.14,7.14,0,0,1,9.71,0l10,9.25a3.82,3.82,0,0,0,5.22,0l5-4.62,7.45-7.45a3.68,3.68,0,0,0,0-5.21"/>
      <path class="waves-3"
            d="M3.36,57.79,42.22,96.66a11,11,0,0,0,15.57,0L96.66,57.79c6.74-6.74,2-8.73-2.95-13.41l-6.09-5.78a3.83,3.83,0,0,0-5.24,0l-10,9.25a7.14,7.14,0,0,1-9.71,0l-10-9.25a3.82,3.82,0,0,0-5.22,0l-10,9.25a7.14,7.14,0,0,1-9.71,0l-10-9.25a3.84,3.84,0,0,0-5.24,0l-5.6,5.17c-5.14,4.78-10.58,7-3.54,14"/>
    </g>
  </g>
</svg>
