<svg id="Layer_1" data-name="Layer 1" xmlns="http://www.w3.org/2000/svg" viewBox="0 0 32 32">
  <title>add_note_32px</title>
  <path d="M25.09,7.36,10.35,22.08,8.83,26.42l4.34-1.51L27.91,10.17a2,2,0,0,0-2.82-2.81ZM12.46,24.2l-2.1.7L11,22.79ZM25.8,10.87,13.17,23.5l-1.42-1.41L24.4,9.44Zm1.41-1.4h0l-.73.71-1.39-1.4.71-.71a1,1,0,0,1,1.41,1.41ZM4.5,8a1,1,0,1,1-1,1A1,1,0,0,1,4.5,8Zm0,7a1,1,0,1,1-1,1A1,1,0,0,1,4.5,15Zm0,7a1,1,0,1,1-1,1A1,1,0,0,1,4.5,22ZM5,2A1,1,0,0,1,6,1H25a1,1,0,0,1,1,1V3.5a4.00011,4.00011,0,0,1,1-.09V2a2,2,0,0,0-2-2H6A2,2,0,0,0,4,2V4H5ZM26,16.71V30a1,1,0,0,1-1,1H6a1,1,0,0,1-1-1V28H4v2a2,2,0,0,0,2,2H25a2,2,0,0,0,2-2V15.71Z"/>
</svg>
