<svg id="Layer1" xmlns="http://www.w3.org/2000/svg" viewBox="0 0 32 32">
  <title></title>
  <g>
    <path id="Path_3440" data-name="Path 3440" d="M32,16.7a1.927,1.927,0,0,0-1.5-1.9,13.93166,13.93166,0,0,0-12.6-12,2.0228,2.0228,0,0,0-2.5-1.3,2.09775,2.09775,0,0,0-1.3,1.3A13.83373,13.83373,0,0,0,1.5,14.7,1.93948,1.93948,0,0,0,.1,17.1a1.98049,1.98049,0,0,0,1.4,1.4,14.35512,14.35512,0,0,0,5.2,9.1l-.1.1a11.78361,11.78361,0,0,1-2.2,1.7.34914.34914,0,0,0-.2.1c-.1.1-.3.2-.4.3a10.92643,10.92643,0,0,0,1.7.5,13.39523,13.39523,0,0,0,6.3-.2h0a14.87332,14.87332,0,0,0,3.6.5h1.3A14.09511,14.09511,0,0,0,30.6,18.5,1.752,1.752,0,0,0,32,16.7ZM16.7,29.3H15.4a4.102,4.102,0,0,1-1.1-.1h0a10.081,10.081,0,0,1-2.5-.5,20.481,20.481,0,0,1-2.4.5,9.6375,9.6375,0,0,1-2.4,0,3.04351,3.04351,0,0,0,.8-.8h0a9.016,9.016,0,0,0,.9-1l.1-.1a4.44006,4.44006,0,0,1-1.1-.8,12.65084,12.65084,0,0,1-4.8-8.2,1.93337,1.93337,0,0,0,1-2.6,2.41006,2.41006,0,0,0-1-1A12.34539,12.34539,0,0,1,14.1,4.1a2.02979,2.02979,0,0,0,2.6,1.1,1.98088,1.98088,0,0,0,1.1-1.1A12.64245,12.64245,0,0,1,29.1,14.9a1.93337,1.93337,0,0,0-1,2.6,2.41006,2.41006,0,0,0,1,1A12.42951,12.42951,0,0,1,16.7,29.3Z"/>
    <path id="Path_3441" data-name="Path 3441" d="M21.3,20H10.7a.65192.65192,0,0,0-.1,1.3H21.4a.56266.56266,0,0,0,.6-.7A.66873.66873,0,0,0,21.3,20Z"/>
    <path id="Path_3442" data-name="Path 3442" d="M23.3,16H8.7a.68354.68354,0,0,0-.7.7.64523.64523,0,0,0,.6.6H23.3a.56266.56266,0,0,0,.6-.7C24,16.3,23.7,16,23.3,16Z"/>
    <path id="Path_3443" data-name="Path 3443" d="M12.7,13.3h6.7a.65192.65192,0,0,0,.1-1.3H12.7a.66873.66873,0,0,0-.7.6.63172.63172,0,0,0,.7.7Z"/>
  </g>
</svg>
