<svg id="_Layer_1" data-name=" Layer 1" xmlns="http://www.w3.org/2000/svg" viewBox="0 0 24 24">
  <title>chat_24px</title>
  <g>
    <path d="M24,12.5a1.49607,1.49607,0,0,0-1.11053-1.4425,10.49134,10.49134,0,0,0-9.46686-9.01093,1.49016,1.49016,0,0,0-2.84521,0A10.49135,10.49135,0,0,0,1.11053,11.0575a1.492,1.492,0,0,0-.00183,2.8844,10.48506,10.48506,0,0,0,3.90344,6.803c-.05475.061-.09741.10791-.09741.10791a7.917,7.917,0,0,1-1.674,1.25439c-.05774.03137-.11761.05768-.17584.08783-.10651.06738-.21051.14172-.31818.20551A8.61182,8.61182,0,0,0,4.052,22.784a9.875,9.875,0,0,0,4.73212-.163l-.00763.00732A10.35784,10.35784,0,0,0,11.5,23h1a10.49368,10.49368,0,0,0,10.38947-9.0575A1.49607,1.49607,0,0,0,24,12.5ZM12.5,22h-1c-.27881,0-.553-.01825-.82574-.04175l-.00018.00006.00293-.00116a9.45726,9.45726,0,0,1-1.89441-.363,9.9053,9.9053,0,0,1-1.78955.38A9.44551,9.44551,0,0,1,5.15723,21.964c.21356-.18188.42761-.36334.62659-.56763l-.002-.00122.00214.001c.22565-.23169.43915-.47943.6449-.73688l.07745-.10394a9.25245,9.25245,0,0,1-.83246-.5625A9.488,9.488,0,0,1,2.1095,13.86823a1.49636,1.49636,0,0,0,.00012-2.73639,9.49365,9.49365,0,0,1,8.49622-8.08667,1.49524,1.49524,0,0,0,2.78833,0,9.49365,9.49365,0,0,1,8.49622,8.08667,1.49634,1.49634,0,0,0,0,2.73633A9.49388,9.49388,0,0,1,12.5,22Z"/>
    <path d="M16,15H8a.5.5,0,0,0,0,1h8a.5.5,0,0,0,0-1Z"/>
    <path d="M17.5,12H6.5a.5.5,0,0,0,0,1h11a.5.5,0,0,0,0-1Z"/>
    <path d="M9.5,10h5a.5.5,0,0,0,0-1h-5a.5.5,0,0,0,0,1Z"/>
  </g>
</svg>
