<svg id="Layer_1" data-name="Layer 1" xmlns="http://www.w3.org/2000/svg" viewBox="0 0 24 24">
  <title>notification_24px</title>
  <path id="Layer_1-2" data-name="Layer 1" d="M20.2,17.4h0A5.58939,5.58939,0,0,1,18,13V8a6.00229,6.00229,0,0,0-5-5.9V1a1,1,0,0,0-2,0V2.1A6.00229,6.00229,0,0,0,6,8v5a5.58939,5.58939,0,0,1-2.2,4.4h0A2.08761,2.08761,0,0,0,3,19a2.00588,2.00588,0,0,0,2,2H9a3,3,0,0,0,6,0h4a2.00588,2.00588,0,0,0,2-2A2.08761,2.08761,0,0,0,20.2,17.4ZM12,23a2.00588,2.00588,0,0,1-2-2h4A2.00588,2.00588,0,0,1,12,23Zm7-3H5a.94477.94477,0,0,1-1-1,1.2345,1.2345,0,0,1,.4-.8l.1-.1A6.62009,6.62009,0,0,0,7,13.6V8A5,5,0,0,1,17,8v5.6a6.91164,6.91164,0,0,0,2.4,4.5l.1.1a.90949.90949,0,0,1,.4.8A.82736.82736,0,0,1,19,20Z"/>
</svg>
