<svg xmlns="http://www.w3.org/2000/svg" viewBox="0 0 15.89944 14.48531">
  <title></title>
  <g id="Слой_2" data-name="Слой 2">
    <g id="Links_16px">
      <g>
        <path d="M15.02077.87872a2.99987,2.99987,0,0,0-4.24262,0L7.24263,4.41425a3,3,0,0,0,0,4.24261.5.5,0,0,0,.70709-.70709,2,2,0,0,1,0-2.82843l3.53552-3.53552a2,2,0,0,1,2.82843,2.82843L10.77815,7.94977a.5.5,0,0,0,.70709.70709l3.53553-3.53552A3,3,0,0,0,15.02077.87872Z"/>
        <path d="M7.94972,5.82843a.50007.50007,0,0,0,0,.70715,1.99989,1.99989,0,0,1,0,2.82837L4.4142,12.89954a2,2,0,0,1-2.82843-2.82843L5.12129,6.53558a.5.5,0,0,0-.70709-.70715L.87868,9.364a3,3,0,0,0,4.24261,4.24268l3.53552-3.53552a3.00005,3.00005,0,0,0,0-4.24268A.5.5,0,0,0,7.94972,5.82843Z"/>
      </g>
    </g>
  </g>
</svg>
