<svg xmlns="http://www.w3.org/2000/svg" viewBox="0 0 16 16">
  <title>Ресурс 1</title>
  <g id="Слой_2" data-name="Слой 2">
    <g id="Overview_16px">
      <g>
        <path d="M15.5,13H3V.5a.5.5,0,0,0-1,0V13H.5a.5.5,0,0,0,0,1H2v1.5a.5.5,0,0,0,1,0V14H15.5a.5.5,0,0,0,0-1Z"/>
        <path d="M4.85352,7.73224l3.88909-3.8891L12.51038,7.6109l-1.5962,1.59619L8.43933,6.73224a.5.5,0,0,0-.70709,0L4.19672,10.26776a.5.5,0,0,0,.70709.70709l3.182-3.18194,2.47485,2.47485a.5.5,0,0,0,.70709,0L13.21753,8.318l1.53552,1.53559a.5.5,0,0,0,.70709-.70716L13.92462,7.6109l.87866-.87866a.5.5,0,0,0-.70709-.70715l-.87866.87866L9.09619,2.78247a.5.5,0,0,0-.70709,0L4.14642,7.02515a.5.5,0,1,0,.7071.70709Z"/>
      </g>
    </g>
  </g>
</svg>
