<svg xmlns="http://www.w3.org/2000/svg" viewBox="0 0 10 16">
  <title></title>
  <g id="Слой_2" data-name="Слой 2">
    <g id="Reports_16px_2">
      <g>
        <path d="M9.5,12.5A.5.5,0,0,0,10,12V3L6,0H1A1,1,0,0,0,0,1V15a1,1,0,0,0,1,1H9a1,1,0,0,0,1-1V14a.5.5,0,0,0-1,0v1H1V1H6V2.5a.5.5,0,0,0,.5.5H9v9A.5.5,0,0,0,9.5,12.5Z"/>
        <path d="M7.5,7h-5a.5.5,0,0,0,0,1h5a.5.5,0,0,0,0-1Z"/>
        <path d="M7.5,9h-5a.5.5,0,0,0,0,1h5a.5.5,0,0,0,0-1Z"/>
        <path d="M7.5,11h-5a.5.5,0,0,0,0,1h5a.5.5,0,0,0,0-1Z"/>
      </g>
    </g>
  </g>
</svg>
