<svg xmlns="http://www.w3.org/2000/svg" viewBox="0 0 15.99999 16">
  <title>Ресурс 3</title>
  <g id="Слой_2" data-name="Слой 2">
    <g id="Terms_and_conditions_16px_1" data-name="Terms and conditions_16px_1">
      <g>
        <path d="M15.85358,11.14642,12.85522,8.14813A4.95313,4.95313,0,0,0,14,5a.5.5,0,1,0-1,0,3.99989,3.99989,0,1,1-1.17175-2.82867l.00018.00024a.5.5,0,1,0,.70709-.70709A4.97529,4.97529,0,0,0,5.02258,2H1A1,1,0,0,0,0,3V15a1,1,0,0,0,1,1H9a1,1,0,0,0,1-1V9.886a5.03844,5.03844,0,0,0,2.14813-1.03083l2.99829,2.99836a.5.5,0,0,0,.70716-.70716ZM9,15H1V3H4.42212a4.94931,4.94931,0,0,0-.32135,1H2.5a.5.5,0,0,0,0,1H4A4.99993,4.99993,0,0,0,9,9.99994Z"/>
        <rect x="2" y="8" width="1" height="6"/>
        <rect x="4" y="10" width="1" height="4"/>
        <rect x="6" y="11" width="1" height="3"/>
      </g>
    </g>
  </g>
</svg>
