<svg id="Layer_1" data-name="Layer 1" xmlns="http://www.w3.org/2000/svg" viewBox="0 0 16 16">
  <title>settings_16px</title>
  <path d="M10.67,7.33h-.09A2.68,2.68,0,0,0,8.67,5.42V5.33a.67.67,0,0,0-1.34,0v.09A2.68,2.68,0,0,0,5.42,7.33H5.33a.67.67,0,0,0,0,1.34h.09a2.68,2.68,0,0,0,1.91,1.91v.09a.67.67,0,0,0,1.34,0v-.09a2.68,2.68,0,0,0,1.91-1.91h.09a.67.67,0,0,0,0-1.34ZM8,10a2,2,0,1,1,2-2A2,2,0,0,1,8,10Z"/>
  <path d="M13.64,5.94l-.2-.47c.94-2.12,1-2.38.79-2.56L13.09,1.77c-.18-.18-.44-.15-2.56.79l-.47-.2C9.22.19,9.06,0,8.81,0H7.19c-.25,0-.41.19-1.25,2.36l-.47.2c-2.12-.94-2.38-1-2.56-.79L1.77,2.91c-.18.18-.15.44.79,2.56l-.2.47C.19,6.78,0,6.94,0,7.19V8.81c0,.25.19.41,2.36,1.25l.2.47c-.94,2.12-1,2.38-.79,2.56l1.14,1.14c.18.18.44.15,2.56-.79l.47.2c.84,2.17,1,2.36,1.25,2.36H8.81c.25,0,.41-.19,1.25-2.36l.47-.2c2.12.94,2.38,1,2.56.79l1.14-1.14c.18-.18.15-.44-.79-2.56l.2-.47c2.17-.84,2.36-1,2.36-1.25V7.19C16,6.94,15.81,6.78,13.64,5.94ZM5.51,3.29a5.8804,5.8804,0,0,1,.93-.39L7.37.67H8.63L9.56,2.9a5.8804,5.8804,0,0,1,.93.39l2.25-.92.89.89L12.71,5.5a4.99985,4.99985,0,0,1,.38.93l2.24.94V8.63l-2.23.93a5.8804,5.8804,0,0,1-.39.93l.92,2.25-.89.89-2.24-.92a4.99985,4.99985,0,0,1-.93.38l-.94,2.24H7.37l-.94-2.24a4.99985,4.99985,0,0,1-.93-.38l-2.24.92-.89-.89.92-2.25a5.8804,5.8804,0,0,1-.39-.93L.67,8.63V7.37l2.24-.94a4.99985,4.99985,0,0,1,.38-.93L2.37,3.26l.89-.89Z"/>
</svg>
