<svg id="Layer_1" data-name="Layer 1" xmlns="http://www.w3.org/2000/svg" viewBox="0 0 100 100">
  <title>ethereum_classic</title>
  <g>
    <polygon points="50 38 24 50 50 68 50 38" fill="#008e46"/>
    <polygon points="50 68 76 50 50 38 50 68" fill="#00b950"/>
    <polygon points="50 58 24 50 50 68 50 58" fill="#0b5932"/>
    <polygon points="50 68 76 50 50 58 50 68" fill="#498052"/>
    <path d="M22.5,47A1.5,1.5,0,0,0,24,45.5v-.06l6.07-3.11a.989.989,0,1,0,1.73-.9l4.45-2.28A1.04239,1.04239,0,0,0,38,38.28l4.26-2.19a.97256.97256,0,0,0,1.72-.88l4.6-2.36a1.5,1.5,0,0,0,2.91,0l4.6,2.36a.97637.97637,0,0,0,1.72.88L62,38.28a1.00852,1.00852,0,0,0,1.75.87l4.45,2.28a.9818.9818,0,1,0,1.73.9L76,45.44v.06A1.5,1.5,0,1,0,77.19,44l-3.46-5.37a.96284.96284,0,0,0-1.03-1.57l-2.11-3.28a.98181.98181,0,0,0-1.06-1.65l-5-7.79a1,1,0,0,0-.35-1.8L64,22.45v.06a1,1,0,0,0-.5.18l-3.82-5.93a1.0013,1.0013,0,0,0-1.11-1.65L50.67,2.83a1.5,1.5,0,1,0-1.34,0L41.43,15.1a.99063.99063,0,0,0-1.06,1.66l-3.82,5.93a1,1,0,0,0-.5-.18v-.06l-.18.09a1,1,0,0,0-.35,1.8l-5,7.79a.995.995,0,0,0-1.11,1.65L27.3,37.06a.985.985,0,0,0-1.04,1.6L22.81,44a1.508,1.508,0,1,0-.31,3ZM30,41.77l-6.16,3.16a1.45005,1.45005,0,0,0-.16-.25l6.58-6.61.28,3A1,1,0,0,0,30,41.77Zm6-3.27a1.00051,1.00051,0,0,0,0,.2l-4.65,2.38a1.00018,1.00018,0,0,0-.27-.06l-.33-3.44L36.32,32l.33,5.53A1,1,0,0,0,36,38.5Zm-5.56-4.61A1,1,0,0,0,31,33a.74128.74128,0,0,0,0-.08L36.26,31v.34l-5.54,5.57ZM41.26,18.43l-.5.45L41,17.54Zm.15.54L43,24.62,39.23,28.4,39,28.05l1.56-8.36Zm5.08-5.82,3.26-9.61V17.05A1,1,0,0,0,49,18a.94.94,0,0,0,.13.46L47.49,20.1,46.3,14.94a1,1,0,0,0,.18-1.79Zm7,0a1,1,0,0,0,.18,1.79L52.51,20.1l-1.64-1.64A.94.94,0,0,0,51,18a1,1,0,0,0-.75-.95V3.54ZM59,17.54l.25,1.34-.5-.45Zm.4,2.15L61,28.05l-.19.35L57,24.62,58.59,19Zm10.16,14.2-.29,3.05-5.54-5.57v-.34L69,32.92A.74128.74128,0,0,0,69,33,1,1,0,0,0,69.56,33.89Zm-6.31-3-.06-.06h.07Zm-1.35-.53.19.07,1.12,1.12L63,36Zm.47-.36-.66-.66-.23-1.21,2-3.78.11.07-.35,5.91Zm-1.12-.42h0l-.47-.17.11-.21Zm-4.93-2.52.53-1.89,3.67,3.69-.22.41L57,28.08V28A1,1,0,0,0,56.32,27.06Zm-.27-.9L55.73,24l.72.72Zm7.06-3.1a.91.91,0,0,0,0,.92L61.3,27.34,60,20.25l3.1,2.81ZM56.6,24.21l-1-1-1.23-8.08,3.8,3.46Zm-1.53,4.15-4.2,2.95a1.46006,1.46006,0,0,0-.38-.2l2.3-10,2.34,2.35.55,3.62a1,1,0,0,0-.6161,1.273L55.07,28.37Zm-10.75-1.3.55-3.62,2.34-2.35,2.3,10a1.45974,1.45974,0,0,0-.38.2l-4.2-2.95a1,1,0,0,0-.593-1.2839L44.32,27.05Zm3.31-6.39,1.84-1.85a.99993.99993,0,0,0,.28.12v11Zm2.62-1.73a.99993.99993,0,0,0,.28-.12l1.84,1.85-2.12,9.25ZM55,22.61l-2.08-2.09L54,15.9Zm-7.93-2.09L45,22.61l1-6.71ZM44.4,23.21l-1,1-1.58-5.62,3.8-3.46ZM43,28.08l-3.3,1.19-.22-.41,3.67-3.69.53,1.89A1,1,0,0,0,43,28Zm-4.26,1.51.35-.36.11.21-.47.17Zm4.8-4.82.72-.72L44,26.17Zm-4.89,2.59L36.85,24a.91.91,0,0,0,0-.92h0L40,20.25Zm-2.3-2.93.11-.07,2,3.78-.23,1.21-.66.66-.92.33ZM37,36l-.26-4.43,1.12-1.12.19-.07Zm-.24-5.17-.06.06h0ZM42,35.63l-4.29,2.2a1.00013,1.00013,0,0,0-.47-.26l1.38-7.39.82-.29,2.73,5.06a1,1,0,0,0-.19.56A.94006.94006,0,0,0,42,35.63Zm6.49-3.33-4.84,2.48a1,1,0,0,0-1.11-.18L39.9,29.71l3.25-1.16a1,1,0,0,0,1.39279.24519q.02412-.01689.04721-.03519l4.15,2.91a1.47,1.47,0,0,0-.22.63Zm8.9,2.3a1,1,0,0,0-1.11.18l-4.8-2.48a1.47008,1.47008,0,0,0-.26-.63l4.15-2.91a1,1,0,0,0,1.40481-.1628q.01828-.02307.03519-.0472l3.25,1.16Zm4.84,3.23L58,35.63a.94.94,0,0,0,0-.13,1,1,0,0,0-.19-.56l2.73-5.06.82.29,1.38,7.39a1,1,0,0,0-.47.27Zm6.6,3.2a1,1,0,0,0-.27.06L64,38.7a1.14539,1.14539,0,0,0-.64-1.13L63.68,32l5.52,5.54Zm1.08.75a1,1,0,0,0-.55-.68l.28-3,6.58,6.61a1.45005,1.45005,0,0,0-.16.25Zm2.32-4.46a1.00619,1.00619,0,0,0,1.09,1.62l3.4,5.29-.11.09-6.87-6.9L70.06,34h.07ZM64.12,24.65l5,7.78-5.35-1.92Zm-2.07-3.21-2.2-2-.37-2Zm-3.41-4.51-.32,1.12-3.66-3.32A.98539.98539,0,0,0,54,13h0L51,4.34l7.15,11.1a1.0309,1.0309,0,0,0,.49,1.49ZM42,16a1,1,0,0,0-.19-.56L49,4.34,46,13h0a.99145.99145,0,0,0-.67,1.73l-3.66,3.32-.32-1.12A1,1,0,0,0,42,16Zm-1.48,1.44-.37,2-2.2,2Zm-4.64,7.21.34,5.87-5.35,1.92Zm-9.2,14.29a.99334.99334,0,0,0,1.04-1.62L29.88,34h.07l.31,3.43-6.87,6.9-.11-.09Z" fill="#00b450"/>
    <path d="M77.5,53A1.5,1.5,0,0,0,76,54.5a1.46994,1.46994,0,0,0,.38,1L65.52,66.38l-8.81,5.18a1,1,0,1,0-1,1.64l-.55,3.62-4.6,4.62a.9.9,0,0,0-1.06,0l-4.6-4.62-.55-3.62a1,1,0,1,0-1-1.64l-8.81-5.18L23.62,55.47a1.47,1.47,0,0,0,.38-1A1.5,1.5,0,1,0,22.5,56h.15l3.61,5.61a.97814.97814,0,0,0,1.04,1.6l2.11,3.28a.98181.98181,0,0,0,1.06,1.65l5.39,8.38a.98731.98731,0,0,0,1.06,1.65l3.44,5.35a.98486.98486,0,0,0,1.06,1.65L49.2,97.23a1.5,1.5,0,1,0,1.59,0l7.78-12.08a.98586.98586,0,0,0,1.06-1.65l3.44-5.35a.98737.98737,0,0,0,1.06-1.65l5.39-8.38a.98182.98182,0,0,0,1.06-1.65L72.7,63.2a.985.985,0,0,0,1.04-1.6L77.35,56h.15a1.5,1.5,0,0,0,0-3ZM64.16,67.74l-2.07,2.08-3.75,1.34ZM57,72.26v-.08l4.29-1.54-4.42,4.44-.53-1.89A1,1,0,0,0,57,72.26Zm-1,1.83.39,1.4-.72.72Zm-.45,3,1-1,1.58,5.62-3.8,3.46Zm-1.76,8.24a1,1,0,0,0-.33,1.82L50.2,96.76V83.21a.9511.9511,0,0,0,.62-1.41L55,77.65ZM49.13,81.8a.9511.9511,0,0,0,.62,1.41V96.72l-3.26-9.61a1,1,0,0,0-.33-1.82L45,77.65ZM44.4,77l1.23,8.08-3.8-3.46L43.4,76Zm-.13-.84-.72-.72.39-1.4Zm-.59-3-.53,1.89-4.42-4.44L43,72.18v.08a1,1,0,0,0,.68.94Zm-2-2-3.75-1.34-2.07-2.08ZM23.15,55.84l.08-.05,9.55,9.59-4.84-2.84a.94.94,0,0,0,.06-.28.98175.98175,0,0,0-1.32-.94ZM27.76,63l6.38,3.75,2.67,2.68L31,67.34a.74147.74147,0,0,0,0-.08,1,1,0,0,0-1-1h-.12Zm3.11,4.84,6.76,2.42L43,75.64l-1.59,5.65-4-3.65a.88011.88011,0,0,0,.1-.39,1.09371,1.09371,0,0,0-1.18-1Zm7.08,11,3.31,3-.41,1.46h0Zm3.41,4.51.32-1.12,3.66,3.32a.99145.99145,0,0,0,.67,1.73h0L49,95.92l-7.15-11.1a.95839.95839,0,0,0-.49-1.49ZM58,84.26a1,1,0,0,0,.19.56L51,95.92l3-8.66h0a.99145.99145,0,0,0,.67-1.73l3.66-3.32.32,1.12A1,1,0,0,0,58,84.26Zm1.17-1h0l-.41-1.46,3.31-3Zm4.51-7a1.09371,1.09371,0,0,0-1.18,1,.88011.88011,0,0,0,.1.39l-4,3.65L57,75.64l5.36-5.39,6.76-2.42Zm6.44-10H70a1,1,0,0,0-1,1,.74128.74128,0,0,0,0,.08l-5.83,2.09,2.67-2.68L72.24,63Zm3.19-5a.98175.98175,0,0,0-1.32.94.94.94,0,0,0,.06.28l-4.84,2.84,9.55-9.59.08.05Z" fill="#00b450"/>
  </g>
</svg>
