<svg id="Layer_1" data-name="Layer 1" xmlns="http://www.w3.org/2000/svg" viewBox="0 0 100 21">
  <title>waves_logo</title>
  <rect id="Rectangle-path" x="91.09346" y="1.60251" width="7.37037" height="7.37037" transform="translate(24.02105 68.56736) rotate(-45)" fill="#05f"/>
  <g id="Group">
    <polygon id="Shape" points="23.282 5.298 20.345 5.298 20.038 5.566 17.025 15.912 17.006 15.912 13.628 5.566 13.321 5.298 10.25 5.298 9.942 5.566 6.583 15.854 6.526 15.816 6.507 15.797 3.493 5.566 3.186 5.298 0.192 5.298 0 5.566 4.702 20.134 5.029 20.422 7.985 20.422 8.311 20.134 11.67 9.712 11.747 9.712 15.125 20.134 15.451 20.422 18.445 20.422 18.772 20.134 23.474 5.566 23.282 5.298"/>
    <polygon id="Shape-2" data-name="Shape" points="56.507 5.298 53.551 5.298 53.225 5.566 49.098 16.334 49.06 16.353 44.971 5.566 44.645 5.298 41.631 5.298 41.44 5.566 47.332 20.134 47.678 20.422 50.403 20.422 50.749 20.134 56.699 5.566 56.507 5.298"/>
    <path id="Shape-3" data-name="Shape" d="M71.74664,13.666l.28791-.26872v-.44146a8.35752,8.35752,0,0,0-1.99616-5.81573A6.94,6.94,0,0,0,64.74088,4.9904,6.73411,6.73411,0,0,0,59.501,7.31286a8.0546,8.0546,0,0,0-2.03455,5.50864,7.84951,7.84951,0,0,0,2.11133,5.6046A7.23131,7.23131,0,0,0,65.048,20.65259a6.95842,6.95842,0,0,0,4.10749-1.17082,6.46524,6.46524,0,0,0,2.68714-3.762l-.21113-.28791H68.86756l-.38387.28791a3.47646,3.47646,0,0,1-3.49329,2.03455,4.39964,4.39964,0,0,1-4.3762-4.12668Zm-10.9405-2.68714a4.05274,4.05274,0,0,1,3.93474-3.10941A3.91637,3.91637,0,0,1,68.714,10.97889Z"/>
    <path id="Shape-4" data-name="Shape" d="M36.64108,5.2975l-.28791.28791V7.08253l-.05758.05759a5.33475,5.33475,0,0,0-1.51632-1.30519c-.13436-.07677-.28791-.15355-.44146-.23032a6.29373,6.29373,0,0,0-2.78311-.595,6.56072,6.56072,0,0,0-4.952,2.26487,7.95458,7.95458,0,0,0-2.07294,5.58541,7.95458,7.95458,0,0,0,2.07294,5.58542,6.56072,6.56072,0,0,0,4.952,2.26487,6.21007,6.21007,0,0,0,2.76392-.595c.15355-.07677.32629-.15355.47985-.24952a5.59769,5.59769,0,0,0,1.47792-1.2476c.0192-.01919.07678.0192.096,0v1.5547l.28791.28791h2.51439l.28791-.28791V5.56622l-.28791-.28791H36.64108ZM35.08637,16.46833a4.04449,4.04449,0,0,1-3.09021,1.34357,3.77144,3.77144,0,0,1-2.93666-1.36276,5.02116,5.02116,0,0,1-1.286-3.62764,5.16922,5.16922,0,0,1,1.286-3.62764,3.80515,3.80515,0,0,1,2.93666-1.36277,4.10252,4.10252,0,0,1,3.09021,1.34357,4.71219,4.71219,0,0,1,1.13244,2.16891V14.261A4.4164,4.4164,0,0,1,35.08637,16.46833Z"/>
    <path id="Shape-5" data-name="Shape" d="M82.39923,11.66987s-1.65067-.34549-3.01343-.6526c-1.2476-.2879-1.881-.65259-1.881-1.5355,0-.9405.90211-1.72745,2.84069-1.72745,1.90019,0,2.95586.84453,2.95586,1.59309l.32629.28791h2.76392l.21112-.26872c0-1.977-1.70825-4.33781-6.18042-4.33781-4.6641,0-6.12284,2.74472-6.12284,4.51056,0,1.47792.53743,3.22457,4.10749,4.0499,0,0,1.70826.38388,3.071.691,1.5547.34549,2.20729.88292,2.20729,1.785,0,.82534-.82533,1.82342-2.975,1.82342-1.99616,0-3.20537-.9597-3.263-2.09213l-.34549-.28791h-2.8215l-.21113.28791c.24952,2.53358,2.13052,4.91362,6.62188,4.91362,5.08637,0,6.12284-3.1094,6.12284-4.74088C86.81382,13.78119,85.56622,12.36084,82.39923,11.66987Z"/>
  </g>
</svg>
