<svg id="Layer_1" data-name="Layer 1" xmlns="http://www.w3.org/2000/svg" viewBox="0 0 100.02 100.02">
  <title>bitcoin_logo</title>
  <g>
    <path d="M52.41,54.86l-8.23-4.75-5.5,9.53,8.23,4.75a5.50161,5.50161,0,0,0,5.5-9.53Z" fill="#f9aa4b"/>
    <path d="M61.19,46.65a5.5,5.5,0,0,0-2-7.51l-6.5-3.75-5.5,9.53,6.5,3.75A5.5,5.5,0,0,0,61.19,46.65Z" fill="#f9aa4b"/>
    <path d="M75,6.71A49.99889,49.99889,0,0,0,24.99323,93.30607L25,93.31A50,50,0,0,0,93.30243,75.0131L93.31,75A50,50,0,0,0,75,6.71ZM70.56073,50.35813A10,10,0,0,1,63,55.28,12,12,0,0,1,47.3,72.69l-.01.02-3.46-2-4.5,7.79L35,76l4.5-7.79-4.33-2.5-4.5,7.79L26.35,71l4.5-7.79-9.53-5.5,3.5-6.06,6.06,3.5,14-24.25-6.06-3.5,3-5.2,9.53,5.5,4.5-7.79,4.33,2.5-4.5,7.79L60,32.69l4.5-7.79,4.33,2.5-4.5,7.79,2.6,1.5A10,10,0,0,1,70.56073,50.35813Z" fill="#f9aa4b"/>
  </g>
</svg>
