<svg xmlns="http://www.w3.org/2000/svg" viewBox="0 0 48.003 47.998">
  <defs>
    <style>
      .cls-1 {
        fill: #f89c2e;
      }
    </style>
  </defs>
  <g id="Group_8730" data-name="Group 8730" transform="translate(-239.498 -231.053)">
    <path id="Union_92" data-name="Union 92" class="cls-1" d="M14556,5543.556a24,24,0,1,1,24,24A24.031,24.031,0,0,1,14556,5543.556Zm2.8-.092a21.109,21.109,0,1,0,21.11-21.107A21.135,21.135,0,0,0,14558.8,5543.464Zm19.663,13.422v-1.653c-4.717-.41-8.239-2.87-8.239-5.93a1.4,1.4,0,1,1,2.808,0c0,1.316,2.246,2.767,5.432,3.108v-7.935c-4.457-1.25-8.239-2.863-8.239-6.975,0-3.064,3.522-5.523,8.239-5.934v-1.653a1.405,1.405,0,0,1,2.811,0v1.653c4.721.411,8.243,2.87,8.243,5.934a1.405,1.405,0,0,1-2.811,0c0-1.315-2.243-2.771-5.433-3.111v7.938c4.457,1.25,8.243,2.862,8.243,6.975,0,3.061-3.522,5.52-8.243,5.93v1.653a1.405,1.405,0,1,1-2.811,0Zm2.811-4.476c3.189-.341,5.433-1.792,5.433-3.108,0-1.737-1.411-2.833-5.433-4.046Zm-8.242-14.91c0,1.737,1.414,2.833,5.432,4.046v-7.158C14575.28,5534.73,14573.034,5536.185,14573.034,5537.5Z" transform="translate(-14316.5 -5288.5)"/>
  </g>
</svg>
