<svg id="Слой_1" data-name="Слой 1" xmlns="http://www.w3.org/2000/svg" viewBox="0 0 24 24">
  <title></title>
  <g id="Слой_2" data-name="Слой 2">
    <rect width="24" height="24" fill="none"/>
    <path d="M14.5,13.5A.5.5,0,0,0,15,13V7a.5.5,0,0,0-1,0v6A.5.5,0,0,0,14.5,13.5Z"/>
    <path d="M14.5,5a.5.5,0,0,0,.5-.5v-1a.5.5,0,0,0-1,0v1A.5.5,0,0,0,14.5,5Z"/>
    <path d="M11,19h2a4,4,0,0,0,4-4V4a4,4,0,0,0-4-4H11A4,4,0,0,0,7,4V15A4,4,0,0,0,11,19ZM8,4a3,3,0,0,1,3-3h2a3,3,0,0,1,3,3V15a3,3,0,0,1-3,3H11a3,3,0,0,1-3-3Z"/>
    <path d="M19.5,15a1,1,0,1,0-1.5.85V16a4,4,0,0,1-4,4H10a4,4,0,0,1-4-4v-.15a1,1,0,1,0-1,0V16a5,5,0,0,0,5,5h1.5v2h-3a.5.5,0,0,0,0,1h7a.5.5,0,0,0,0-1h-3V21H14a5,5,0,0,0,5-5v-.15A1,1,0,0,0,19.5,15Z"/>
  </g>
</svg>
