<svg id="logo_c_telegram" xmlns="http://www.w3.org/2000/svg" viewBox="0 0 14.227 14.222">
  <defs>
    <style>
      .cls-1 {
        fill: #696868;
      }
    </style>
  </defs>
  <path id="Path_5114" data-name="Path 5114" class="cls-1" d="M14.009.071A.581.581,0,0,1,14.222.6L12.2,12.8a.527.527,0,0,1-.249.356,1.045,1.045,0,0,1-.249.036.671.671,0,0,1-.213-.036L7.893,11.7l-1.92,2.347a.473.473,0,0,1-.391.178.4.4,0,0,1-.178-.036.447.447,0,0,1-.249-.178.328.328,0,0,1-.071-.284V10.951l6.862-8.427-8.5,7.36L.32,8.6A.5.5,0,0,1,0,8.142.544.544,0,0,1,.249,7.68L13.476.071A.438.438,0,0,1,13.724,0a.631.631,0,0,1,.284.071Z" transform="translate(0 0)"/>
</svg>
