<svg xmlns="http://www.w3.org/2000/svg" viewBox="0 0 11.559 16">
  <defs>
    <style>
      .cls-1 {
        fill: #696868;
      }
    </style>
  </defs>
  <path id="logo_c_bitcointalk" class="cls-1" d="M16.019,10.3a2.283,2.283,0,0,0,1.264-2.482c-.169-1.747-1.677-2.332-3.582-2.5V2.9H12.225V5.26c-.388,0-.784.008-1.178.016V2.9H9.572V5.325c-.319.007-2.974.006-2.974.006V6.906s1.089-.021,1.071,0a.762.762,0,0,1,.849.646l0,6.639a.521.521,0,0,1-.554.489c.019.017-1.073,0-1.073,0L6.6,16.441s2.629.005,2.974.007l0,2.451h1.474V16.474c.405.008.8.011,1.179.011V18.9h1.475V16.452c2.48-.144,4.216-.769,4.431-3.1A2.512,2.512,0,0,0,16.019,10.3ZM11.083,7.01c.833,0,3.449-.266,3.45,1.472,0,1.667-2.616,1.473-3.449,1.473Zm0,7.68V11.443c1,0,4.136-.289,4.137,1.622C15.222,14.9,12.086,14.689,11.086,14.69Z" transform="translate(-6.599 -2.9)"/>
</svg>
