<svg id="Layer_1" data-name="Layer 1" xmlns="http://www.w3.org/2000/svg" viewBox="0 0 16 16">
  <title>security_16px</title>
  <g>
    <path d="M9.62,9a1.62,1.62,0,1,0-2.37,1.43A12.83965,12.83965,0,0,0,7,12a.71.71,0,0,0,.67.67h.66A.71.71,0,0,0,9,12a12.83965,12.83965,0,0,0-.25-1.57A1.59,1.59,0,0,0,9.62,9ZM8.16,10h0l.24,2H7.6l.24-2h0a1,1,0,1,1,.32,0Z"/>
    <path d="M13.3,6H13V5A5.14,5.14,0,0,0,8,0,5.14,5.14,0,0,0,3,5V6H2.7A1.7,1.7,0,0,0,1,7.7V9a6.84,6.84,0,0,0,6.67617,7q.16189.00384.32383,0a6.84,6.84,0,0,0,7-6.67617Q15.00384,9.16194,15,9V7.7A1.7,1.7,0,0,0,13.3,6ZM3.7,5A4.38,4.38,0,0,1,8,.7,4.38,4.38,0,0,1,12.3,5V6H3.7ZM14.3,9a6.05,6.05,0,0,1-5.78921,6.3q-.25529.01078-.51079,0A6.05,6.05,0,0,1,1.7,9.51079Q1.68922,9.25551,1.7,9V7.7a1,1,0,0,1,1-1H13.3a1,1,0,0,1,1,1Z"/>
    <path d="M5.65,5.6V3.8A.35.35,0,0,1,6,3.45H6a.35.35,0,0,1,.35.35V5.6A.35.35,0,0,1,6,5.95H6A.35.35,0,0,1,5.65,5.6Z"/>
    <path d="M9.65,5.6V3.8A.35.35,0,0,1,10,3.45h0a.35.35,0,0,1,.35.35V5.6a.35.35,0,0,1-.35.35h0A.35.35,0,0,1,9.65,5.6Z"/>
  </g>
</svg>
