<svg xmlns="http://www.w3.org/2000/svg" viewBox="0 0 32 32"><defs><style>.cls-1{fill:none;}</style></defs><title></title><g id="Слой_2" data-name="Слой 2"><g id="Слой_1-2" data-name="Слой 1"><g id="Слой_2-2" data-name="Слой 2"><g id="Слой_1-2-2" data-name="Слой 1-2"><rect id="_bg_" data-name="&lt;bg&gt;" class="cls-1" width="32" height="32"/><circle cx="12" cy="9" r="1"/><polygon points="5 11 6 11 6 6 11 6 11 5 6 5 6 0 5 0 5 5 0 5 0 6 5 6 5 11"/><path d="M16,0a.5.5,0,0,0,0,1A15,15,0,1,1,1,16a.5.5,0,0,0-1,0A16,16,0,1,0,16,0Z"/><path d="M19.86,17.47A4.48,4.48,0,0,0,16.5,10a4.83,4.83,0,0,0-1.49.26.5.5,0,0,0,.36.93h0a3.5,3.5,0,1,1-1.88,1.52.5.5,0,0,0-.89-.45h0a4.46,4.46,0,0,0,.71,5.41h0A9,9,0,0,0,8,25.91v.51c.32-.25.65-.5,1-.73a8,8,0,0,1,5.31-7.28A4.43,4.43,0,0,0,19,18.23a8,8,0,0,1,5,4c.4.06.8.1,1.19.19A9,9,0,0,0,19.86,17.47Z"/></g></g></g></g></svg>