<svg id="add_contact" data-name="add contact" xmlns="http://www.w3.org/2000/svg" viewBox="0 0 32 32">
  <title></title>
  <g id="_Group_" data-name="&lt;Group&gt;">
    <polygon id="_Contour_" data-name="&lt;Contour&gt;" points="7 11 8 11 8 6 13 6 13 5 8 5 8 0 7 0 7 5 2 5 2 6 7 6 7 11"/>
    <path id="_Contour_2" data-name="&lt;Contour&gt;" d="M16,0a.5.5,0,0,0,0,1A15,15,0,1,1,1,16a.5.5,0,0,0-1,0A16,16,0,1,0,16,0Z"/>
    <path id="_Contour_3" data-name="&lt;Contour&gt;" d="M12.6,11.26a4.45992,4.45992,0,0,0,.71,5.41A9,9,0,0,0,8,24.91v.51c.32-.25.65-.5,1-.73a8.0001,8.0001,0,0,1,5.31-7.28A4.42991,4.42991,0,0,0,19,17.23a7.9999,7.9999,0,0,1,5,4c.4.06.8.1,1.19.19a9.00026,9.00026,0,0,0-5.33-4.95A4.48,4.48,0,0,0,16.5,9a4.82967,4.82967,0,0,0-1.49.26.5.5,0,0,0,.36.93,3.5,3.5,0,1,1-1.88,1.52.5.5,0,0,0-.89-.45Z"/>
  </g>
</svg>
