<svg id="dialer" xmlns="http://www.w3.org/2000/svg" viewBox="0 0 18 18">
  <title></title>
  <path id="_Composition_сontour_" data-name="&lt;Composition сontour&gt;" d="M18,12a1,1,0,0,0-1-1,.98563.98563,0,0,0-.74524.34949l-2.81787-.1623A.98983.98983,0,0,0,12.5,10.5a1,1,0,0,0-1,1,.97186.97186,0,0,0,.15.49518l-.38684.95733a.31877.31877,0,0,1-.36126.14875,9.946,9.946,0,0,1-3.69751-2.43311,8.94729,8.94729,0,0,1-2.295-3.57.31877.31877,0,0,1,.14875-.36126l.95068-.38416A.97222.97222,0,0,0,6.5,6.5a1,1,0,0,0,1-1,.98983.98983,0,0,0-.68719-.93689l-.1623-2.81787A.98563.98563,0,0,0,7,1,.99677.99677,0,0,0,5.0946.587L1.76666.88123A.98275.98275,0,0,0,1,.5.99843.99843,0,0,0,.59894,2.41345,18.20122,18.20122,0,0,0,5.32373,12.54877a18.93881,18.93881,0,0,0,10.254,4.83642A.99964.99964,0,0,0,17.5,17a.98275.98275,0,0,0-.38123-.76666L17.413,12.9054A.99644.99644,0,0,0,18,12ZM1.66876,2.35938a.30311.30311,0,0,1,.05042-.17017,1.004,1.004,0,0,0,.05688-.08435.30832.30832,0,0,1,.17639-.09577l.00318-.00036,3.1875-.44623c.02832,0,.04638.02307.07251.03a.97258.97258,0,0,0,.21167.2052c.00909.0296.03454.0509.03454.0835L5.773,4.82245A.9912.9912,0,0,0,5.5,5.5c0,.01135.0061.02069.00647.032-.34381.14-1.22992.50556-1.55335.68427a.47806.47806,0,0,0-.26562.44623.66057.66057,0,0,0,0,.21252A12.89891,12.89891,0,0,0,6.45,11.42249a13.92918,13.92918,0,0,0,4.675,2.89.62766.62766,0,0,0,.21252,0,.4462.4462,0,0,0,.44623-.255c.14649-.31025.54016-1.22522.68537-1.56373.01086.00037.01995.00623.03088.00623a.99082.99082,0,0,0,.67615-.272l2.94262.23578c.00544,0,.00849.00549.01386.00573a.98058.98058,0,0,0,.30206.33325l-.44342,3.2204a.31158.31158,0,0,1-.08874.19586c-.0235.018-.05158.02948-.07337.04944a.30311.30311,0,0,1-.16693.06281h-.02161a18.0622,18.0622,0,0,1-9.5625-4.53687A17.43555,17.43555,0,0,1,1.66876,2.35938Z"/>
</svg>
