<svg id="chat" xmlns="http://www.w3.org/2000/svg" viewBox="0 0 18 18">
  <title>chat_18px</title>
  <g id="_Group_" data-name="&lt;Group&gt;">
    <path id="_Contour_" data-name="&lt;Contour&gt;" d="M12,10.5H6a.5.5,0,0,0,0,1h6a.5.5,0,0,0,0-1Z"/>
    <path id="_Contour_2" data-name="&lt;Contour&gt;" d="M13,8.5H5a.5.5,0,0,0,0,1h8a.5.5,0,0,0,0-1Z"/>
    <path id="_Contour_3" data-name="&lt;Contour&gt;" d="M7,7.5h4a.5.5,0,0,0,0-1H7a.5.5,0,0,0,0,1Z"/>
    <path id="_Composition_contour_" data-name="&lt;Composition contour&gt;" d="M17,8a8.06361,8.06361,0,0,0-7-6.9V1A.94477.94477,0,0,0,9,0,.94477.94477,0,0,0,8,1v.1A7.86214,7.86214,0,0,0,1.1,8H1A.94477.94477,0,0,0,0,9a.94477.94477,0,0,0,1,1h.1a7.41409,7.41409,0,0,0,2.6,4.9A9.18648,9.18648,0,0,1,1,16.5a6.96285,6.96285,0,0,0,2.5.5A4.41964,4.41964,0,0,0,6,16.4,7.30635,7.30635,0,0,0,9,17a7.99306,7.99306,0,0,0,7.9-7H17a.94477.94477,0,0,0,1-1A.94477.94477,0,0,0,17,8ZM9,16a7.82979,7.82979,0,0,1-3.1-.7,3.65321,3.65321,0,0,1-1.4.7,2.15208,2.15208,0,0,1-.8,0,2.58637,2.58637,0,0,0,1.1-1.4l-.1-.1A6.86716,6.86716,0,0,1,2,9a7,7,0,1,1,7,7Z"/>
  </g>
</svg>
