<svg id="dialer" xmlns="http://www.w3.org/2000/svg" viewBox="0 0 24 24">
  <title></title>
  <path id="_Composition_contour_" data-name="&lt;Composition contour&gt;" d="M22.8952,16.94067a1.497,1.497,0,1,0-1.76941-2.03918L21.1,14.9c-1.40107-.08325-5.6-.4-5.6-.4a.54987.54987,0,0,0-.5.3l-1.1,2.7a.3653.3653,0,0,1-.5.2,11.91412,11.91412,0,0,1-4.2-2.8,12.88218,12.88218,0,0,1-2.8-4.2.34357.34357,0,0,1,.2-.5L9.2,9a.54987.54987,0,0,0,.3-.5s-.29248-4.19745-.4-5.6l-.00184-.02563A1.49955,1.49955,0,1,0,7.03076,1.19678L7,1.2c-1.05786.11292-3.14752.362-4.23914.49274a1.49719,1.49719,0,1,0-1.66119,2.2464A18.00062,18.00062,0,0,0,18,22.9c.6861.03553,1.37427.01758,2.061.00074a1.49633,1.49633,0,1,0,2.3222-1.60779c.00464-.03247.01282-.05927.01678-.093C22.5257,20.13739,22.76575,18.02692,22.8952,16.94067ZM2.1,6c0-.7-.005-1.39838,0-2.1L2.1,3.87335a1.49582,1.49582,0,0,0,.88977-1.27191L3,2.6c1.04425-.10279,3.127-.29364,4.18188-.3982a1.49338,1.49338,0,0,0,.91175.73548c.002.022.00439.03955.00635.06274.10577,1.24951.30377,3.74969.4,5,.01715.22253-.04382.3324-.2.4-.74134.32081-2.22919.952-3,1.2a.40355.40355,0,0,0-.3.5A13.95683,13.95683,0,0,0,13.9,19a.59975.59975,0,0,0,.6-.3,27.953,27.953,0,0,0,1.2-2.9c.08142-.20825.2005-.2143.4-.2,1.22436.0877,3.74243.263,4.99157.39917a1.499,1.499,0,0,0,.80841.8742c-.0011.01019.00135.01624.00006.02667-.12719,1.02472-.5,4.1-.5,4.1l-.00378.01044a1.49439,1.49439,0,0,0-1.26086.87347L20.1,21.9A16.99929,16.99929,0,0,1,2.1,6Z"/>
</svg>
