<svg id="Create" xmlns="http://www.w3.org/2000/svg" viewBox="0 0 18 18">
  <title></title>
  <g id="_Group_" data-name="&lt;Group&gt;">
    <path id="_Composition_сontour_" data-name="&lt;Composition сontour&gt;" d="M14.59878,2.57123l-9.2,9.19-1.51,4.34,4.32-1.48,9.19-9.19a2.00122,2.00122,0,0,0-2.8-2.86Zm-7.07,11.31-2.09.66.67-2.08Zm7.77-7.78-7.07,7.07-1.41-1.41,7.07-7.07Zm.7-.71-1.4-1.39.71-.71a1,1,0,0,1,1.41,1.41Z"/>
    <path id="_Contour_" data-name="&lt;Contour&gt;" d="M1,14H1a1,1,0,0,1,1,1H2a1,1,0,0,1-1,1H1a1,1,0,0,1-1-1H0A1,1,0,0,1,1,14Z"/>
    <path id="_Contour_2" data-name="&lt;Contour&gt;" d="M1,8H1A1,1,0,0,1,2,9H2a1,1,0,0,1-1,1H1A1,1,0,0,1,0,9H0A1,1,0,0,1,1,8Z"/>
    <path id="_Contour_3" data-name="&lt;Contour&gt;" d="M1,2H1A1,1,0,0,1,2,3H2A1,1,0,0,1,1,4H1A1,1,0,0,1,0,3H0A1,1,0,0,1,1,2Z"/>
  </g>
</svg>
