<svg id="invite" xmlns="http://www.w3.org/2000/svg" viewBox="0 0 18 18">
  <title>invite_18px</title>
  <path id="_Contour_" data-name="&lt;Contour&gt;" d="M11.60974,3.58019A2.0414,2.0414,0,0,0,9,3.77038a2.0414,2.0414,0,0,0-2.60974-.19019C5.70685,4.26361,6.02368,5.52367,7,6.5A15.33454,15.33454,0,0,0,9,8a15.33454,15.33454,0,0,0,2-1.5C11.97632,5.52367,12.29315,4.26361,11.60974,3.58019Z"/>
  <path id="_Composite_contour_" data-name="&lt;Composite contour&gt;" d="M17.11871,5.34192l.00159-.00116L15,3.87115V2a1,1,0,0,0-1-1H10.85773L9.96893.384a1.94327,1.94327,0,0,0-1.93786,0L7.14227,1H4A1,1,0,0,0,3,2V3.87115L.8797,5.34076l.00159.00116A1.998,1.998,0,0,0,0,7v9a2,2,0,0,0,2,2H16a2,2,0,0,0,2-2V7A1.998,1.998,0,0,0,17.11871,5.34192ZM15,5.15094l.91675.64655L15,6.68787ZM4,2H14V7.65906L10.56,11H7.44L4,7.65906ZM3,5.15094V6.68787l-.91675-.89038ZM1.22,16.6A1.00006,1.00006,0,0,1,1,16V7a1.00006,1.00006,0,0,1,.22-.6l5.29,5.07ZM9,17H2.29l5.15-5h3.12l5.15,5Zm8-1a1.00006,1.00006,0,0,1-.22.6l-5.29-5.13L16.78,6.4A1.00006,1.00006,0,0,1,17,7Z"/>
</svg>
