<svg xmlns="http://www.w3.org/2000/svg" viewBox="0 0 24 24"><defs><style>.cls-1{fill:none;}</style></defs><title></title><g id="Слой_2" data-name="Слой 2"><g id="Слой_1-2" data-name="Слой 1"><rect id="bg" class="cls-1" width="24" height="24"/><path d="M21.16,13.44a4,4,0,0,0-4.82-6.07,4.48,4.48,0,0,0-8.68,0,4,4,0,0,0-4.82,6.07A8.77,8.77,0,0,0,0,16a7.66,7.66,0,0,1,1-.07l.39,0A6.71,6.71,0,0,1,3.6,14.18a4,4,0,0,0,1.63.74,15.18,15.18,0,0,0-2.29,3.52c.46-.22.93-.42,1.42-.6a9.94,9.94,0,0,1,6.08-5.13,4.29,4.29,0,0,0,3.13,0,9.94,9.94,0,0,1,6.08,5.13c.49.18,1,.39,1.42.6a15.18,15.18,0,0,0-2.29-3.52,4,4,0,0,0,1.63-.74,6.71,6.71,0,0,1,2.23,1.77l.39,0A7.66,7.66,0,0,1,24,16,8.77,8.77,0,0,0,21.16,13.44ZM6.14,14H6A3,3,0,0,1,6,8a3,3,0,0,1,1.51.42h0s0,.05,0,.08A4.47,4.47,0,0,0,9.24,12,9.63,9.63,0,0,0,6.14,14ZM12,12a3.5,3.5,0,1,1,3.5-3.5A3.5,3.5,0,0,1,12,12Zm6,2h-.14a9.63,9.63,0,0,0-3.1-2A4.47,4.47,0,0,0,16.5,8.5s0-.05,0-.08h0A3,3,0,0,1,18,8a3,3,0,0,1,0,6Z"/></g></g></svg>