<svg id="send" xmlns="http://www.w3.org/2000/svg" viewBox="0 0 18 15.00171">
  <title></title>
  <path id="_Composition_contour_" data-name="&lt;Composition contour&gt;" d="M17.78379.13765A.59387.59387,0,0,0,17.1822.04282L1.986,6.17641a.30019.30019,0,0,0,.22125.55812L2.211,6.733,16.728.87549,9.52681,9.36865a.30008.30008,0,1,0,.45787.388l7.31-8.62221-.977,4.904-.98415,6.57614a.3001.3001,0,0,1-.15.21814.28356.28356,0,0,1-.253.01171l-4.09175-1.60886-1.9635-.82212a.30006.30006,0,0,0-.39276.16051.28792.28792,0,0,0-.01259.06333H8.46281L7.488,14.40164,6.08914,9.51538,13.3803,4.08453a.3.3,0,1,0-.35827-.48006L5.6934,9.06077.41076,6.92234a.3.3,0,1,0-.225.55629h0l5.31084,2.149L6.91282,14.5718a.595.595,0,0,0,.5737.43h.00689a.58956.58956,0,0,0,.39005-.15693.26277.26277,0,0,0,.03-.021l2.90025-2.96565,3.88862,1.542a.87433.87433,0,0,0,.77141-.04321.89751.89751,0,0,0,.45218-.65141l.98147-6.56383L17.98751.72246A.60335.60335,0,0,0,17.78379.13765ZM8.329,13.54257l.63341-2.4415.992.41646.25562.1014Z"/>
</svg>
