<svg xmlns="http://www.w3.org/2000/svg" viewBox="0 0 100 100">
  <defs>
    <style>
      .ethereum-classic-1{fill:none;}.ethereum-classic-2{fill:#008e46;}.ethereum-classic-3{fill:#00b950;}.ethereum-classic-4{fill:#0b5932;}.ethereum-classic-5{fill:#498052;}.ethereum-classic-6{fill:#00b450;}
    </style>
  </defs>
  <title></title>
  <g id="Слой_2" data-name="Слой 2">
    <g id="Ethereum_Classic_ETC_" data-name="Ethereum Classic (ETC)">
      <rect id="_bg_" data-name=" bg " class="ethereum-classic-1" width="100" height="100"/>
      <polygon class="ethereum-classic-2" points="50 38 24 50 50 68 50 38"/>
      <polygon class="ethereum-classic-3" points="50 68 76 50 50 38 50 68"/>
      <polygon class="ethereum-classic-4" points="50 58 24 50 50 68 50 58"/>
      <polygon class="ethereum-classic-5" points="50 68 76 50 50 58 50 68"/>
      <path class="ethereum-classic-6"
            d="M22.5,47A1.5,1.5,0,0,0,24,45.5s0,0,0-.06l6.07-3.11A1,1,0,0,0,32,42a1,1,0,0,0-.2-.57l4.45-2.28a1,1,0,0,0,.75.35,1,1,0,0,0,1-1,1,1,0,0,0,0-.22l4.26-2.19a1,1,0,0,0,.78.41,1,1,0,0,0,1-1,1,1,0,0,0-.06-.29l4.6-2.36a1.5,1.5,0,0,0,2.91,0l4.6,2.36a1,1,0,0,0-.06.29,1,1,0,0,0,1,1,1,1,0,0,0,.78-.41L62,38.28a1,1,0,0,0,0,.22,1,1,0,0,0,1,1,1,1,0,0,0,.75-.35l4.45,2.28A1,1,0,0,0,68,42a1,1,0,0,0,1.93.33L76,45.44s0,0,0,.06A1.5,1.5,0,1,0,77.19,44l-3.46-5.37A1,1,0,0,0,74,38a1,1,0,0,0-1-1,1,1,0,0,0-.3.06l-2.11-3.28A1,1,0,0,0,71,33a1,1,0,0,0-1-1,1,1,0,0,0-.47.13l-5-7.79a1,1,0,0,0-.35-1.8L64,22.45l0,.06a1,1,0,0,0-.5.18l-3.82-5.93A1,1,0,0,0,60,16a1,1,0,0,0-1-1,1,1,0,0,0-.43.11L50.67,2.83a1.5,1.5,0,1,0-1.34,0l-7.9,12.27A1,1,0,0,0,41,15a1,1,0,0,0-1,1,1,1,0,0,0,.37.76l-3.82,5.93a1,1,0,0,0-.5-.18l0-.06-.18.09a1,1,0,0,0-.35,1.8l-5,7.79A1,1,0,0,0,30,32a1,1,0,0,0-1,1,1,1,0,0,0,.41.78L27.3,37.06A1,1,0,0,0,27,37a1,1,0,0,0-1,1,1,1,0,0,0,.26.66L22.81,44a1.5,1.5,0,1,0-.31,3ZM30,41.77l-6.16,3.16a1.45,1.45,0,0,0-.16-.25l6.58-6.61.28,3A1,1,0,0,0,30,41.77Zm6-3.27a1,1,0,0,0,0,.2l-4.65,2.38a1,1,0,0,0-.27-.06l-.33-3.44L36.32,32l.33,5.53A1,1,0,0,0,36,38.5Zm-5.56-4.61A1,1,0,0,0,31,33a.74.74,0,0,0,0-.08L36.26,31l0,.34-5.54,5.57ZM41.26,18.43l-.5.45L41,17.54Zm.15.54L43,24.62,39.23,28.4,39,28.05l1.56-8.36Zm5.08-5.82,3.26-9.61V17.05A1,1,0,0,0,49,18a.94.94,0,0,0,.13.46L47.49,20.1l-1.19-5.16a1,1,0,0,0,.18-1.79Zm7,0a1,1,0,0,0,.18,1.79L52.51,20.1l-1.64-1.64A.94.94,0,0,0,51,18a1,1,0,0,0-.75-.95V3.54ZM59,17.54l.25,1.34-.5-.45Zm.4,2.15L61,28.05l-.19.35L57,24.62,58.59,19ZM69.56,33.89l-.29,3.05-5.54-5.57,0-.34L69,32.92A.74.74,0,0,0,69,33,1,1,0,0,0,69.56,33.89Zm-6.31-3-.06-.06.07,0Zm-1.35-.53.19.07,1.12,1.12L63,36Zm.47-.36-.66-.66-.23-1.21,2-3.78.11.07-.35,5.91Zm-1.12-.42v0l-.47-.17.11-.21Zm-4.93-2.52.53-1.89,3.67,3.69-.22.41L57,28.08S57,28,57,28A1,1,0,0,0,56.32,27.06Zm-.27-.9L55.73,24l.72.72Zm7.06-3.1a.91.91,0,0,0,0,.92l-1.81,3.36L60,20.25l3.1,2.81ZM56.6,24.21l-1-1-1.23-8.08,3.8,3.46Zm-1.53,4.15-4.2,2.95a1.46,1.46,0,0,0-.38-.2l2.3-10,2.34,2.35.55,3.62a1,1,0,0,0-.61,1.29ZM44.32,27.06l.55-3.62,2.34-2.35,2.3,10a1.46,1.46,0,0,0-.38.2l-4.2-2.95a1,1,0,0,0-.61-1.29Zm3.31-6.39,1.84-1.85a1,1,0,0,0,.28.12v11Zm2.62-1.73a1,1,0,0,0,.28-.12l1.84,1.85-2.12,9.25ZM55,22.61l-2.08-2.09L54,15.9Zm-7.93-2.09L45,22.61l1-6.71ZM44.4,23.21l-1,1-1.58-5.62,3.8-3.46ZM43,28.08,39.7,29.27l-.22-.41,3.67-3.69.53,1.89A1,1,0,0,0,43,28S43,28.05,43,28.08Zm-4.26,1.51.35-.36.11.21-.47.17Zm4.8-4.82.72-.72L44,26.17Zm-4.89,2.59L36.85,24a.91.91,0,0,0,0-.92h0L40,20.25Zm-2.3-2.93.11-.07,2,3.78-.23,1.21-.66.66-.92.33ZM37,36l-.26-4.43,1.12-1.12.19-.07Zm-.24-5.17-.06.06v0ZM42,35.63l-4.29,2.2a1,1,0,0,0-.47-.26l1.38-7.39.82-.29,2.73,5.06a1,1,0,0,0-.19.56A.94.94,0,0,0,42,35.63Zm6.49-3.33-4.84,2.48a1,1,0,0,0-1.11-.18l-2.64-4.89,3.25-1.16a1,1,0,0,0,1.44.21l4.15,2.91A1.47,1.47,0,0,0,48.52,32.3Zm8.9,2.3a1,1,0,0,0-1.11.18L51.48,32.3a1.47,1.47,0,0,0-.26-.63l4.15-2.91a1,1,0,0,0,1.44-.21l3.25,1.16Zm4.84,3.23L58,35.63a.94.94,0,0,0,0-.13,1,1,0,0,0-.19-.56l2.73-5.06.82.29,1.38,7.39A1,1,0,0,0,62.27,37.83Zm6.6,3.2a1,1,0,0,0-.27.06L64,38.7a1,1,0,0,0,0-.2,1,1,0,0,0-.64-.93L63.68,32l5.52,5.54Zm1.08.75a1,1,0,0,0-.55-.68l.28-3,6.58,6.61a1.45,1.45,0,0,0-.16.25Zm2.32-4.46A1,1,0,0,0,73,39a1,1,0,0,0,.32-.06l3.4,5.29-.11.09-6.87-6.9L70.06,34h.07ZM64.12,24.65l5,7.78-5.35-1.92Zm-2.07-3.21-2.2-2-.37-2Zm-3.41-4.51-.32,1.12-3.66-3.32A1,1,0,0,0,55,14a1,1,0,0,0-1-1h0L51,4.34l7.15,11.1A1,1,0,0,0,58,16,1,1,0,0,0,58.64,16.93ZM42,16a1,1,0,0,0-.19-.56L49,4.34,46,13h0a1,1,0,0,0-1,1,1,1,0,0,0,.33.73l-3.66,3.32-.32-1.12A1,1,0,0,0,42,16Zm-1.48,1.44-.37,2-2.2,2Zm-4.64,7.21.34,5.87-5.35,1.92Zm-9.2,14.29A1,1,0,0,0,27,39a1,1,0,0,0,.72-1.68L29.88,34h.07l.31,3.43-6.87,6.9-.11-.09Z"/>
      <path class="ethereum-classic-6"
            d="M77.5,53A1.5,1.5,0,0,0,76,54.5a1.47,1.47,0,0,0,.38,1L65.52,66.38l-8.81,5.18a1,1,0,1,0-1,1.64l-.55,3.62-4.6,4.62a.9.9,0,0,0-1.06,0l-4.6-4.62-.55-3.62a1,1,0,1,0-1-1.64l-8.81-5.18L23.62,55.47a1.47,1.47,0,0,0,.38-1A1.5,1.5,0,1,0,22.5,56l.15,0,3.61,5.61a1,1,0,0,0-.26.66,1,1,0,0,0,1,1,1,1,0,0,0,.3-.06l2.11,3.28a1,1,0,0,0-.41.78,1,1,0,0,0,1,1,1,1,0,0,0,.47-.13l5.39,8.38a1,1,0,0,0-.36.75,1,1,0,0,0,1,1,1,1,0,0,0,.42-.1l3.44,5.35a1,1,0,0,0-.37.76,1,1,0,0,0,1,1,1,1,0,0,0,.43-.11L49.2,97.23a1.5,1.5,0,1,0,1.59,0l7.78-12.08a1,1,0,0,0,.43.11,1,1,0,0,0,1-1,1,1,0,0,0-.37-.76l3.44-5.35a1,1,0,0,0,.42.1,1,1,0,0,0,1-1,1,1,0,0,0-.36-.75l5.39-8.38a1,1,0,0,0,.47.13,1,1,0,0,0,1-1,1,1,0,0,0-.41-.78L72.7,63.2a1,1,0,0,0,.3.06,1,1,0,0,0,1-1,1,1,0,0,0-.26-.66L77.35,56l.15,0a1.5,1.5,0,0,0,0-3ZM64.16,67.74l-2.07,2.08-3.75,1.34ZM57,72.26s0-.05,0-.08l4.29-1.54-4.42,4.44-.53-1.89A1,1,0,0,0,57,72.26Zm-1,1.83.39,1.4-.72.72Zm-.45,3,1-1,1.58,5.62-3.8,3.46Zm-1.76,8.24a1,1,0,0,0-.33,1.82l-3.26,9.61V83.21a1,1,0,0,0,.75-.95,1,1,0,0,0-.13-.46L55,77.65ZM49.13,81.8a1,1,0,0,0-.13.46,1,1,0,0,0,.75.95V96.72l-3.26-9.61a1,1,0,0,0-.33-1.82L45,77.65ZM44.4,77l1.23,8.08-3.8-3.46L43.4,76Zm-.13-.84-.72-.72.39-1.4Zm-.59-3-.53,1.89-4.42-4.44L43,72.18s0,.05,0,.08A1,1,0,0,0,43.68,73.2Zm-2-2-3.75-1.34-2.07-2.08ZM23.15,55.84l.08-.05,9.55,9.59-4.84-2.84a.94.94,0,0,0,.06-.28,1,1,0,0,0-1-1,1,1,0,0,0-.32.06ZM27.76,63l6.38,3.75,2.67,2.68L31,67.34a.74.74,0,0,0,0-.08,1,1,0,0,0-1-1l-.12,0Zm3.11,4.84,6.76,2.42L43,75.64l-1.59,5.65-4-3.65a.88.88,0,0,0,.1-.39,1,1,0,0,0-1-1,1,1,0,0,0-.18,0Zm7.08,11,3.31,3-.41,1.46h0Zm3.41,4.51.32-1.12,3.66,3.32a1,1,0,0,0-.33.73,1,1,0,0,0,1,1h0L49,95.92l-7.15-11.1a1,1,0,0,0,.19-.56A1,1,0,0,0,41.36,83.33ZM58,84.26a1,1,0,0,0,.19.56L51,95.92,54,87.26h0a1,1,0,0,0,1-1,1,1,0,0,0-.33-.73l3.66-3.32.32,1.12A1,1,0,0,0,58,84.26Zm1.17-1h0l-.41-1.46,3.31-3Zm4.51-7a1,1,0,0,0-.18,0,1,1,0,0,0-1,1,.88.88,0,0,0,.1.39l-4,3.65L57,75.64l5.36-5.39,6.76-2.42Zm6.44-10-.12,0a1,1,0,0,0-1,1,.74.74,0,0,0,0,.08l-5.83,2.09,2.67-2.68L72.24,63Zm3.19-5a1,1,0,0,0-.32-.06,1,1,0,0,0-1,1,.94.94,0,0,0,.06.28l-4.84,2.84,9.55-9.59.08.05Z"/>
    </g>
  </g>
</svg>
