<svg xmlns="http://www.w3.org/2000/svg" viewBox="0 0 100.02 100.02"><defs><style>.cls-1{fill:none;}.cls-2{fill:#f9aa4b;}</style></defs><title>Bitcoin_100px</title><g id="Слой_2" data-name="Слой 2"><g id="Bitcoin_100px"><rect id="_bg_" data-name="&lt;bg&gt;" class="cls-1" x="0.01" y="0.01" width="100" height="100"/><path class="cls-2" d="M52.41,54.86l-8.23-4.75-5.5,9.53,8.23,4.75a5.5,5.5,0,0,0,5.5-9.53Z"/><path class="cls-2" d="M61.19,46.65a5.5,5.5,0,0,0-2-7.51l-6.5-3.75-5.5,9.53,6.5,3.75A5.5,5.5,0,0,0,61.19,46.65Z"/><path class="cls-2" d="M75,6.71h0A50,50,0,0,0,6.71,25h0A50,50,0,0,0,25,93.31h0A50,50,0,0,0,93.31,75h0A50,50,0,0,0,75,6.71Zm-27.71,66-3.46-2-4.5,7.79L35,76l4.5-7.79-4.33-2.5-4.5,7.79L26.35,71l4.5-7.79-9.53-5.5,3.5-6.06,6.06,3.5,14-24.25-6.06-3.5,3-5.2,9.53,5.5,4.5-7.79,4.33,2.5-4.5,7.79L60,32.69l4.5-7.79,4.33,2.5-4.5,7.79,2.6,1.5A10,10,0,0,1,63,55.28,12,12,0,0,1,47.3,72.69Z"/></g></g></svg>