<svg id="Layer_1" data-name="Layer 1" xmlns="http://www.w3.org/2000/svg" viewBox="0 0 24 24">
  <title></title>
  <path id="_download_" data-name="&lt;download&gt;" d="M12,2.5a.47239.47239,0,0,1,.5.5.5.5,0,0,1-1,0A.47239.47239,0,0,1,12,2.5ZM23.5,18a.47239.47239,0,0,0-.5.5V22a.94477.94477,0,0,1-1,1H2a.94477.94477,0,0,1-1-1V18.5A.47239.47239,0,0,0,.5,18a.47239.47239,0,0,0-.5.5V22a2.00588,2.00588,0,0,0,2,2H22a2.00588,2.00588,0,0,0,2-2V18.5A.47239.47239,0,0,0,23.5,18Zm-8-2.8a.48333.48333,0,0,0-.7,0h0l-2.3,2.3V5a.5.5,0,0,0-1,0V17.5L9.2,15.2a.495.495,0,0,0-.7.7l2.8,2.8a.96667.96667,0,0,0,1.4,0l2.8-2.8a.48333.48333,0,0,0,0-.7Z"/>
</svg>
