<svg id="Ресурс_69" data-name="Ресурс 69" xmlns="http://www.w3.org/2000/svg" viewBox="0 0 18 12.02082">
  <title>Ресурс 69</title>
  <g id="Слой_1" data-name="Слой 1">
    <g id="Group_2723" data-name="Group 2723">
      <path id="Path_3329" data-name="Path 3329" d="M17,8a.97205.97205,0,0,0-.49.146A9.156,9.156,0,0,0,14.322,5.8l-.708.708A8.03012,8.03012,0,0,1,15.875,9,7.928,7.928,0,0,1,9,13a7.848,7.848,0,0,1-1.681-.2l-.835.835A8.869,8.869,0,0,0,16.5,9.85.97192.97192,0,0,0,17,10a1,1,0,0,0,0-2Z" transform="translate(0 -2.98929)"/>
      <rect id="Rectangle_4083" data-name="Rectangle 4083" x="1.00041" y="8.4997" width="16" height="1" transform="translate(-3.72759 6.01091) rotate(-45)"/>
      <path id="Path_3330" data-name="Path 3330" d="M6,9a2.97083,2.97083,0,0,0,.111.767l.9-.9A1.988,1.988,0,0,1,8.865,7.014l.9-.9A2.962,2.962,0,0,0,6,9Z" transform="translate(0 -2.98929)"/>
      <path id="Path_3331" data-name="Path 3331" d="M9.135,10.986l-.9.9A2.962,2.962,0,0,0,11.891,8.23l-.9.9A1.988,1.988,0,0,1,9.135,10.986Z" transform="translate(0 -2.98929)"/>
      <path id="Path_3332" data-name="Path 3332" d="M3.678,12.2l.708-.708A8.03293,8.03293,0,0,1,2.125,9,7.928,7.928,0,0,1,9,5a7.848,7.848,0,0,1,1.681.2l.835-.835A8.869,8.869,0,0,0,1.5,8.15.97192.97192,0,0,0,1,8a1,1,0,0,0,0,2,.973.973,0,0,0,.489-.146A9.15384,9.15384,0,0,0,3.678,12.2Z" transform="translate(0 -2.98929)"/>
    </g>
  </g>
</svg>
