<svg id="hide_password" data-name="hide password" xmlns="http://www.w3.org/2000/svg" viewBox="0 0 18 18">
  <title></title>
  <g id="_group_" data-name="&lt;group&gt;">
    <path id="_contour_" data-name="&lt;contour&gt;" d="M17,8a.97252.97252,0,0,0-.4895.14612,9.15579,9.15579,0,0,0-2.1889-2.34637l-.70825.70825A8.03033,8.03033,0,0,1,15.87506,9,7.928,7.928,0,0,1,9,13a7.84867,7.84867,0,0,1-1.68085-.19781l-.83484.83484A8.86913,8.86913,0,0,0,16.505,9.8501.97167.97167,0,0,0,17,10a1,1,0,0,0,0-2Z"/>
    <rect id="_contour_2" data-name="&lt;contour&gt;" x="1.00002" y="8.49998" width="16.00002" height="0.99998" transform="translate(-3.72789 9.00001) rotate(-45)"/>
    <path id="_contour_3" data-name="&lt;contour&gt;" d="M6,9a2.97137,2.97137,0,0,0,.11145.76721l.90216-.90216A1.98816,1.98816,0,0,1,8.86505,7.01361l.90216-.90216A2.96175,2.96175,0,0,0,6,9Z"/>
    <path id="_contour_4" data-name="&lt;contour&gt;" d="M9.135,10.98639l-.90216.90216a2.96175,2.96175,0,0,0,3.65576-3.65576l-.90216.90216A1.98816,1.98816,0,0,1,9.135,10.98639Z"/>
    <path id="_contour_5" data-name="&lt;contour&gt;" d="M3.67847,12.2002l.70819-.70819A8.03262,8.03262,0,0,1,2.12494,9,7.92817,7.92817,0,0,1,9,5a7.848,7.848,0,0,1,1.68085.19781l.83484-.83484A8.869,8.869,0,0,0,1.49506,8.1499.97208.97208,0,0,0,1,8a1,1,0,0,0,0,2,.97275.97275,0,0,0,.4895-.14618A9.15408,9.15408,0,0,0,3.67847,12.2002Z"/>
  </g>
</svg>
