<svg id="Слой_1" data-name="Слой 1" xmlns="http://www.w3.org/2000/svg" viewBox="0 0 15.112 18.00054">
  <title></title>
  <g id="Group_9505" data-name="Group 9505">
    <path id="Union_96" data-name="Union 96" d="M4.444,18a1.747,1.747,0,0,1-1.778-1.714v-.857H1.778A1.749,1.749,0,0,1,0,13.715v-12A1.749,1.749,0,0,1,1.778,0h8.889a1.749,1.749,0,0,1,1.778,1.714v.857h.889a1.747,1.747,0,0,1,1.778,1.714v12A1.747,1.747,0,0,1,13.334,18Zm-.889-2.571v.857a.873.873,0,0,0,.88871.857H13.334a.873.873,0,0,0,.889-.85671V4.286a.874.874,0,0,0-.889-.857H4.444a.874.874,0,0,0-.889.857ZM.889,1.714v12a.874.874,0,0,0,.889.857h.889V4.285A1.747,1.747,0,0,1,4.444,2.571h7.111V1.714a.874.874,0,0,0-.889-.857H1.778A.874.874,0,0,0,.889,1.714ZM5.53,14.572v-.857h6.694v.857ZM5.53,12v-.857h6.694V12Zm0-2.571V8.571h6.694v.857Zm0-2.571V6h6.694v.857Z" transform="translate(0 0.00025)"/>
  </g>
</svg>
