<svg id="show_password" data-name="show password" xmlns="http://www.w3.org/2000/svg" viewBox="0 0 18 18">
  <title></title>
  <g id="_group_" data-name="&lt;group&gt;">
    <path id="_compound_contour_" data-name="&lt;compound contour&gt;" d="M17,8a.97208.97208,0,0,0-.49506.1499,8.86117,8.86117,0,0,0-15.00989,0A.972.972,0,0,0,1,8a1,1,0,0,0,0,2,.97167.97167,0,0,0,.495-.1499,8.86127,8.86127,0,0,0,15.01,0A.97167.97167,0,0,0,17,10a1,1,0,0,0,0-2ZM9,13A7.92817,7.92817,0,0,1,2.12494,9,7.90831,7.90831,0,0,1,15.87506,9,7.928,7.928,0,0,1,9,13Z"/>
    <circle id="_contour_" data-name="&lt;contour&gt;" cx="9" cy="9" r="0.5"/>
    <path id="_compound_contour_2" data-name="&lt;compound contour&gt;" d="M9,6a3,3,0,1,0,3,3A3,3,0,0,0,9,6Zm0,5a2,2,0,1,1,2-2A2,2,0,0,1,9,11Z"/>
  </g>
</svg>
