<svg id="logo" xmlns="http://www.w3.org/2000/svg" viewBox="0 0 40 56">
  <title></title>
  <g>
    <circle cx="4" cy="36" r="4" fill="#00b0ba"/>
    <circle cx="36" cy="4" r="4" fill="#00b0ba"/>
    <circle cx="4" cy="20" r="4" fill="#00b0ba"/>
    <circle cx="4" cy="4" r="4" fill="#00b0ba"/>
    <circle cx="20" cy="4" r="4" fill="#00b0ba"/>
    <circle cx="20" cy="20" r="4" fill="#00b0ba"/>
    <circle cx="20" cy="36" r="4" fill="#00b0ba"/>
    <circle cx="36" cy="20" r="4" fill="#00b0ba"/>
    <circle cx="36" cy="36" r="4" fill="#00b0ba"/>
    <rect x="9" y="3.25" width="6" height="1.5" fill="#00b0ba"/>
    <rect x="25" y="3.25" width="6" height="1.5" fill="#00b0ba"/>
    <rect x="25" y="35.25" width="6" height="1.5" fill="#00b0ba"/>
    <rect x="19.25" y="25" width="1.5" height="6" fill="#00b0ba"/>
    <rect x="11.25" y="6.00056" width="1.5" height="12" transform="translate(-4.97096 12.00016) rotate(-45)" fill="#00b0ba"/>
    <path d="M3.61512,53.20557l-.004.702H0V48.08122H3.61115v.702H.86837v1.84635H3.075v.67755H.86837V53.2056Z" fill="#00b0ba"/>
    <path d="M5.15639,50.35746a2.936,2.936,0,0,1,.28-.25952,1.76576,1.76576,0,0,1,.31037-.20074A1.65441,1.65441,0,0,1,6.1,49.76714a1.68091,1.68091,0,0,1,.40348-.04688,1.47845,1.47845,0,0,1,.59827.1136,1.1919,1.1919,0,0,1,.43253.319,1.37777,1.37777,0,0,1,.26349.49262,2.15068,2.15068,0,0,1,.0898.63724v2.62486h-.795v-2.625a1.05041,1.05041,0,0,0-.20339-.68809.76038.76038,0,0,0-.62076-.245,1.1727,1.1727,0,0,0-.56988.144,1.89235,1.89235,0,0,0-.49329.39159v3.02245h-.7911v-4.122H4.889a.19255.19255,0,0,1,.20669.15782Z" fill="#00b0ba"/>
    <path d="M11.84314,50.55627a.45334.45334,0,0,1-.07132.07131.1624.1624,0,0,1-.09905.02642.23738.23738,0,0,1-.136-.05085,1.82583,1.82583,0,0,0-.1783-.10962,1.5577,1.5577,0,0,0-.26018-.10962,1.20312,1.20312,0,0,0-.37508-.05084,1.18643,1.18643,0,0,0-.51508.10565.98045.98045,0,0,0-.37111.30047,1.37525,1.37525,0,0,0-.22586.47412,2.36859,2.36859,0,0,0-.0766.62932,2.33108,2.33108,0,0,0,.08057.64319,1.39459,1.39459,0,0,0,.23178.47413.973.973,0,0,0,.36515.29254,1.12888,1.12888,0,0,0,.47875.099,1.19955,1.19955,0,0,0,.422-.06273,1.36,1.36,0,0,0,.276-.136,1.92387,1.92387,0,0,0,.18226-.136.23144.23144,0,0,1,.15055-.06274.1735.1735,0,0,1,.1499.0733l.22716.29188a1.53545,1.53545,0,0,1-.31895.2965,1.80634,1.80634,0,0,1-.37508.19876,2.09842,2.09842,0,0,1-.416.1136,2.629,2.629,0,0,1-.43979.03632,1.82279,1.82279,0,0,1-.71979-.142,1.62869,1.62869,0,0,1-.58112-.414,1.98208,1.98208,0,0,1-.387-.667,2.641,2.641,0,0,1-.142-.89874,2.72378,2.72378,0,0,1,.12745-.8479,1.8946,1.8946,0,0,1,.37772-.67158,1.746,1.746,0,0,1,.61413-.44244,2.06366,2.06366,0,0,1,.836-.16046,1.998,1.998,0,0,1,.77922.142,1.91037,1.91037,0,0,1,.60027.40215Z" fill="#00b0ba"/>
    <path d="M13.58317,50.5767a1.896,1.896,0,0,1,.47875-.63724,1.091,1.091,0,0,1,.92714-.20075.67035.67035,0,0,1,.20933.09113l-.05283.5963a.129.129,0,0,1-.13405.10962.9951.9951,0,0,1-.17037-.02179,1.24225,1.24225,0,0,0-.24368-.02247.948.948,0,0,0-.33675.05483.79178.79178,0,0,0-.2615.16178,1.10245,1.10245,0,0,0-.20471.26414,2.69563,2.69563,0,0,0-.16641.35461v2.58067h-.79177V49.7856h.455a.25115.25115,0,0,1,.17632.04622.30427.30427,0,0,1,.06669.16443Z" fill="#00b0ba"/>
    <path d="M19.4141,49.7856l-2.28878,5.31849a.32653.32653,0,0,1-.09708.138A.27843.27843,0,0,1,16.85,55.291h-.58838l.75413-1.643-1.69191-3.8624h.69007a.23793.23793,0,0,1,.15849.0482.2857.2857,0,0,1,.08057.10962l1.04731,2.475c.02113.06206.04227.12546.06274.18886s.037.12613.05084.18887c.0185-.06538.039-.12944.06076-.19283s.04425-.12679.06868-.18886l1.01036-2.471a.2681.2681,0,0,1,.08916-.1136.22806.22806,0,0,1,.138-.04424Z" fill="#00b0ba"/>
    <path d="M20.76849,50.40237a2.49611,2.49611,0,0,1,.278-.282,1.76578,1.76578,0,0,1,.319-.21923,1.66207,1.66207,0,0,1,.36254-.142,1.6231,1.6231,0,0,1,.41206-.05085,1.45655,1.45655,0,0,1,.63922.138,1.34181,1.34181,0,0,1,.48866.40546,1.9678,1.9678,0,0,1,.31433.66168,3.31445,3.31445,0,0,1,.11158.90468,2.80361,2.80361,0,0,1-.12343.84991,2.08805,2.08805,0,0,1-.35329.67951,1.61825,1.61825,0,0,1-1.3042.61676,1.49758,1.49758,0,0,1-.63262-.1215,1.51762,1.51762,0,0,1-.47083-.34074v1.789h-.79115V49.7856h.47479a.19338.19338,0,0,1,.20669.15782Zm.04094,2.49085a1.11779,1.11779,0,0,0,.42.35726,1.2193,1.2193,0,0,0,.50517.101.997.997,0,0,0,.842-.39159,1.85981,1.85981,0,0,0,.29782-1.14175,2.93312,2.93312,0,0,0-.0667-.67158,1.28216,1.28216,0,0,0-.19481-.45432.77551.77551,0,0,0-.31433-.25952,1.02855,1.02855,0,0,0-.422-.08321,1.13373,1.13373,0,0,0-.59894.15387,1.70967,1.70967,0,0,0-.4682.43848Z" fill="#00b0ba"/>
    <path d="M25.8202,53.97224a1.01869,1.01869,0,0,1-.7693-.28,1.10569,1.10569,0,0,1-.26941-.799v-2.4671h-.47875a.154.154,0,0,1-.16244-.17037v-.32026l.66959-.09311.1783-1.22958a.18982.18982,0,0,1,.06274-.10764.18166.18166,0,0,1,.11952-.0383h.40215v1.38344h1.16817v.57582h-1.1682V52.8404a.4934.4934,0,0,0,.11953.36319.414.414,0,0,0,.30641.11952.55731.55731,0,0,0,.18885-.0284.719.719,0,0,0,.13538-.06273c.0383-.02311.07066-.04424.09773-.06274a.13053.13053,0,0,1,.07264-.0284.10051.10051,0,0,1,.0634.01784.23758.23758,0,0,1,.04622.05943l.23575.381a1.36645,1.36645,0,0,1-.46291.276A1.6171,1.6171,0,0,1,25.8202,53.97224Z" fill="#00b0ba"/>
    <path d="M29.1999,49.72022a2.17212,2.17212,0,0,1,.82148.14858,1.70265,1.70265,0,0,1,.6247.42593,1.88991,1.88991,0,0,1,.39557.6696,2.86967,2.86967,0,0,1,0,1.75853,1.87856,1.87856,0,0,1-.39557.66959,1.7305,1.7305,0,0,1-.6247.424,2.366,2.366,0,0,1-1.64692,0,1.7496,1.7496,0,0,1-.62667-.424,1.88747,1.88747,0,0,1-.40018-.66959,2.83119,2.83119,0,0,1,0-1.75853,1.899,1.899,0,0,1,.40018-.6696,1.72106,1.72106,0,0,1,.62667-.42593A2.18107,2.18107,0,0,1,29.1999,49.72022Zm0,3.62733a1.00922,1.00922,0,0,0,.8723-.39355,2.27874,2.27874,0,0,0,0-2.21746,1.00887,1.00887,0,0,0-.8723-.39558,1.02281,1.02281,0,0,0-.88223.39558,2.26072,2.26072,0,0,0,0,2.21746A1.02318,1.02318,0,0,0,29.1999,53.34755Z" fill="#00b0ba"/>
    <path d="M35.19988,48.80365H33.35023v5.10388h-.86044V48.80365H30.63155v-.72243h4.56833Z" fill="#00b0ba"/>
    <path d="M38.2758,53.31915a1.57788,1.57788,0,0,1-.33678.29452,1.95352,1.95352,0,0,1-.40612.20075,2.45774,2.45774,0,0,1-.44376.1136,2.8662,2.8662,0,0,1-.45234.03632,2.12513,2.12513,0,0,1-.78913-.144,1.75062,1.75062,0,0,1-.62932-.422,1.92443,1.92443,0,0,1-.41338-.69007,2.78171,2.78171,0,0,1-.14858-.947,2.35066,2.35066,0,0,1,.13406-.80167,1.93437,1.93437,0,0,1,.38366-.64713,1.7764,1.7764,0,0,1,.61018-.43385,2.00191,2.00191,0,0,1,.81157-.15848,1.90659,1.90659,0,0,1,.696.12414,1.54169,1.54169,0,0,1,.54942.35924,1.65164,1.65164,0,0,1,.36319.57979,2.1954,2.1954,0,0,1,.13207.78714.51312.51312,0,0,1-.04028.24566.16637.16637,0,0,1-.15055.06267H35.44355a2.24877,2.24877,0,0,0,.10566.64318,1.29546,1.29546,0,0,0,.25754.45631,1.02826,1.02826,0,0,0,.39159.27207,1.37615,1.37615,0,0,0,.50715.08915,1.53048,1.53048,0,0,0,.4563-.06076,2.20852,2.20852,0,0,0,.33282-.13207c.09311-.04754.17169-.09113.23509-.13206a.33015.33015,0,0,1,.16837-.06077.17477.17477,0,0,1,.15056.07332Zm-.65309-1.93088a1.34742,1.34742,0,0,0-.06735-.4345.98136.98136,0,0,0-.19678-.34472.892.892,0,0,0-.31631-.22716,1.20226,1.20226,0,0,0-1.21506.20669,1.39314,1.39314,0,0,0-.36319.79968Z" fill="#00b0ba"/>
    <path d="M40,47.91877v5.98876h-.79573V47.91877Z" fill="#00b0ba"/>
  </g>
</svg>
