<svg id="Layer_1" data-name="Layer 1" xmlns="http://www.w3.org/2000/svg" viewBox="0 0 48 48">
  <title>billing_48px</title>
  <g>
    <path d="M34,18a25.94,25.94,0,0,0-20,0c-2,.91-14,7-14,18,0,9,7,12,16,12H32c9,0,16-3,16-12C48,25,36,18.91,34,18ZM32,46H25V43.9A5,5,0,0,0,24,34a2,2,0,1,1,2-2h2a4,4,0,0,0-3-3.86V26H23v2.14A4,4,0,0,0,24,36a3,3,0,0,1,3,3H19a5,5,0,0,0,4,4.9V46H16C8,46,2,43,2,36c0-9,10.46-15.28,12-16a26,26,0,0,1,20,0c1.57.72,12,7,12,16C46,43,40,46,32,46Z"/>
    <path d="M34,13a25.9397,25.9397,0,0,0-4-1.29V7.45A3.99107,3.99107,0,1,0,28,4v7.31a25.94,25.94,0,0,0-8,0V4a4.03376,4.03376,0,1,0-2,3.45v4.26A25.9397,25.9397,0,0,0,14,13c-1.45.67-9.55,4.23-14,10.36V27.2C3.12,20,12.68,15.62,14,15a26,26,0,0,1,20,0c1.34.62,10.84,4.92,14,12.13V23.32C43.52,17.21,35.45,13.67,34,13ZM16,6a2,2,0,1,1,2-2A2,2,0,0,1,16,6ZM32,2a2,2,0,1,1-2,2A2,2,0,0,1,32,2Z"/>
  </g>
</svg>
