<?xml version="1.0" encoding="utf-8"?>
<!-- Generator: Adobe Illustrator 21.1.0, SVG Export Plug-In . SVG Version: 6.00 Build 0)  -->
<svg version="1.1" id="Слой_1" xmlns="http://www.w3.org/2000/svg" xmlns:xlink="http://www.w3.org/1999/xlink" x="0px" y="0px"
	 viewBox="0 0 24 24" style="enable-background:new 0 0 24 24;" xml:space="preserve">
<style type="text/css">
	.st0{fill:none;}
</style>
<title>Ресурс 148</title>
<g id="Слой_2">
	<g id="Слой_1-2">
		<rect id="bg" class="st0" width="24" height="24"/>
		<path d="M17.6,22h-2.1c-0.3,0-0.5,0.2-0.5,0.5s0.2,0.5,0.5,0.5h2.1c0.3,0,0.5-0.2,0.5-0.5S17.8,22,17.6,22L17.6,22z"/>
		<path d="M17.6,1.5h-2.1C15.2,1.5,15,1.7,15,2c0,0,0,0,0,0c0,0.3,0.2,0.5,0.4,0.5c0,0,0,0,0,0h2.1C17.8,2.5,18,2.3,18,2
			c0,0,0,0,0,0C18,1.7,17.8,1.5,17.6,1.5C17.6,1.5,17.6,1.5,17.6,1.5z"/>
		<path d="M6.4,2.5h2.1C8.8,2.5,9,2.3,9,2c0,0,0,0,0,0c0-0.3-0.2-0.5-0.4-0.5c0,0,0,0,0,0H6.4C6.2,1.5,6,1.7,6,2c0,0,0,0,0,0
			C6,2.3,6.2,2.5,6.4,2.5C6.4,2.5,6.4,2.5,6.4,2.5z"/>
		<path d="M5.8,4.1c-0.2-0.2-0.5-0.2-0.7,0s-0.2,0.5,0,0.7l4.3,4.3c0.2,0.2,0.5,0.2,0.7,0s0.2-0.5,0-0.7L5.8,4.1z"/>
		<path d="M12.5,18.6v-3.1c0-0.3-0.2-0.5-0.5-0.5s-0.5,0.2-0.5,0.5v3.1c0,0.3,0.2,0.5,0.5,0.5S12.5,18.8,12.5,18.6L12.5,18.6z"/>
		<circle cx="21" cy="22" r="2"/>
		<circle cx="12" cy="22" r="2"/>
		<circle cx="3" cy="22" r="2"/>
		<circle cx="21" cy="12" r="2"/>
		<circle cx="12" cy="12" r="2"/>
		<circle cx="3" cy="12" r="2"/>
		<circle cx="21" cy="2" r="2"/>
		<circle cx="12" cy="2" r="2"/>
		<circle cx="3" cy="2" r="2"/>
	</g>
</g>
</svg>
