<svg xmlns="http://www.w3.org/2000/svg" viewBox="0 0 16 16"><defs><style>.cls-1{fill:none;}</style></defs><title>Forwarding Rules</title><g id="Слой_2" data-name="Слой 2"><g id="Forwarding_Rules" data-name="Forwarding Rules"><g id="Forwarding_Rules-2" data-name="Forwarding Rules"><rect id="_bg_" data-name="&lt;bg&gt;" class="cls-1" width="16" height="16"/><path d="M10.35,2.7h3.3a.35.35,0,1,0,0-.7h-3.3a.35.35,0,0,0,0,.7Z"/><path d="M10.35,6.7h3.3a.35.35,0,0,0,0-.7h-3.3a.35.35,0,1,0,0,.7Z"/><path d="M10.35,4.7h3.3a.35.35,0,0,0,0-.7h-3.3a.35.35,0,1,0,0,.7Z"/><path d="M16,10.33a1,1,0,0,0-1-1,.86.86,0,0,0-.73.34l-3.6-.34a.7.7,0,0,0-.6.47L9.13,12,9,11.93A11.42,11.42,0,0,1,4.13,7.07L4,6.87l2.13-.94a.69.69,0,0,0,.54-.6c0-.4-.27-2.66-.34-3.6A.86.86,0,0,0,6.67,1a1,1,0,0,0-1-1,1.05,1.05,0,0,0-1,.8L1.8,1.07A1,1,0,0,0,1,.67a1,1,0,0,0-1,1,.93.93,0,0,0,.73.93C1,9,7,15,13.4,15.27a1.06,1.06,0,0,0,.93.73,1,1,0,0,0,1-1,.93.93,0,0,0-.46-.8l.33-2.87A1.05,1.05,0,0,0,16,10.33ZM14.27,14a1,1,0,0,0-.87.6,13.24,13.24,0,0,1-12-12A1.08,1.08,0,0,0,2,1.73l2.8-.26A.9.9,0,0,0,5.67,2L6,5.33A17.83,17.83,0,0,0,3.53,6.47a.44.44,0,0,0-.13.6A14.34,14.34,0,0,0,8.93,12.6a.44.44,0,0,0,.6-.13c.2-.27.94-2,1.14-2.47l3.33.33a.9.9,0,0,0,.53.87Z"/></g></g></g></svg>