<svg xmlns="http://www.w3.org/2000/svg" viewBox="0 0 48 48"><defs><style>.cls-1{fill:none;}</style></defs><title>Ресурс 1</title><g id="Слой_2" data-name="Слой 2"><g id="Слой_1-2" data-name="Слой 1"><g id="Слой_2-2" data-name="Слой 2"><g id="Слой_1-2-2" data-name="Слой 1-2"><g id="Слой_2-2-2" data-name="Слой 2-2"><g id="Слой_1-2-2-2" data-name="Слой 1-2-2"><rect id="_bg_" data-name=" bg " class="cls-1" width="48" height="48"/><circle cx="16" cy="4" r="2"/><path d="M24,0a1,1,0,0,0,0,2A22,22,0,1,1,2,24a1,1,0,0,0-2,0A24,24,0,1,0,24,0Z"/><path d="M31.69,21A9.2,9.2,0,0,0,34,15a9.25,9.25,0,0,0-3-6.71A9.69,9.69,0,0,0,25,6a7.77,7.77,0,0,0-2,.23l-.76.23a1,1,0,0,0,.57,1.92l.43-.13A7.36,7.36,0,0,1,25,8a7,7,0,1,1-6.07,3.53,1,1,0,0,0-1.74-1,9,9,0,0,0,1.58,11A17.94,17.94,0,0,0,8,37.91a6.57,6.57,0,0,0,0,1c.68-.5,1.33-1,2-1.46A15.94,15.94,0,0,1,20.65,22.87,9,9,0,0,0,30,22.51a16,16,0,0,1,10,8c.8.12,1.61.21,2.39.37A18,18,0,0,0,31.69,21Z"/></g></g></g></g></g></g></svg>