<?xml version="1.0" encoding="utf-8"?>
<!-- Generator: Adobe Illustrator 17.1.0, SVG Export Plug-In . SVG Version: 6.00 Build 0)  -->
<!DOCTYPE svg PUBLIC "-//W3C//DTD SVG 1.0//EN" "http://www.w3.org/TR/2001/REC-SVG-20010904/DTD/svg10.dtd">
<svg version="1.0" id="Слой_1" xmlns="http://www.w3.org/2000/svg" xmlns:xlink="http://www.w3.org/1999/xlink" x="0px" y="0px"
	 viewBox="0 0 24 24" enable-background="new 0 0 24 24" xml:space="preserve">
<title>Ресурс 155</title>
<g id="Слой_2">
	<g id="Слой_1-2">
		<rect id="bg" fill="none" width="24" height="24"/>
		<path d="M18.5,8.5C18.5,8.8,18.7,9,19,9h5V3.5C24,3.2,23.8,3,23.5,3S23,3.2,23,3.5v3.8C20.4,1.2,13.3-1.6,7.2,1S-1.7,10.7,1,16.8
			s9.7,8.9,15.8,6.3c3.4-1.5,5.9-4.4,6.9-8l-1-0.2C21,20.7,15,24.2,9.1,22.6C3.2,21-0.2,15,1.4,9.1S9-0.2,14.8,1.3
			C18.2,2.3,21,4.7,22.2,8H19C18.7,8,18.5,8.2,18.5,8.5z"/>
	</g>
</g>
</svg>
