<svg xmlns="http://www.w3.org/2000/svg" viewBox="0 0 10.563 13">
  <path id="Union_39" data-name="Union 39" d="M-5262.875-7119.813h-5.688a.812.812,0,0,1-.813.813.812.812,0,0,1-.812-.812.813.813,0,0,1,.813-.812v-8.937H-5271v-.812h2.438V-7132h5.688v1.625h2.436v.813h-1.624v8.937a.814.814,0,0,1,.813.813.813.813,0,0,1-.813.813A.812.812,0,0,1-5262.875-7119.813Zm-5.688-.812h5.688v-8.937h-5.688Zm.813-9.75h4.063v-.812h-4.063Zm3.25,8.937v-5.687h.813v5.687Zm-1.625,0v-6.5h.813v6.5Zm-1.625,0v-5.687h.813v5.687Z" transform="translate(5271 7132)"/>
</svg>
