<svg id="general" xmlns="http://www.w3.org/2000/svg" viewBox="0 0 16 16">
  <title></title>
  <path id="_Contour_" data-name="&lt;Contour&gt;" d="M11.11755,6.478,11.108,6.47534A3.98948,3.98948,0,0,0,5.16272,1.17157a.5.5,0,0,0,.70709.70709,3,3,0,1,1,0,4.24268A2.96242,2.96242,0,0,1,5,4,.5.5,0,1,0,4,4,3.95494,3.95494,0,0,0,5.12524,6.78247,9.58634,9.58634,0,0,0,0,15.5c0,.1.01062.19684.01337.29608a11.46906,11.46906,0,0,1,1.13379-1.97076A8.25764,8.25764,0,0,1,6.04181,7.47339a3.98368,3.98368,0,0,0,4.25494-.2179l.01007.00336A7.312,7.312,0,0,1,13.8,9.48627a11.39162,11.39162,0,0,1,1.73932.68866A8.66994,8.66994,0,0,0,11.11755,6.478Z"/>
</svg>
