<svg id="address_book" data-name="address book" xmlns="http://www.w3.org/2000/svg" viewBox="0 0 16 16">
  <title></title>
  <path id="_Composition_contour_" data-name="&lt;Composition contour&gt;" d="M11.48,7.32A3.49,3.49,0,1,0,6.06,8a6.42,6.42,0,0,0-3,6.59,13.07131,13.07131,0,0,1,.91-1v-.13a5.5,5.5,0,0,1,3-4.87,3.41,3.41,0,0,0,3.81-.48,5.51,5.51,0,0,1,3,1.89,13.00033,13.00033,0,0,1,1.3.14A6.51006,6.51006,0,0,0,11.48,7.32ZM8.48,8A2.51,2.51,0,1,1,8.5,8ZM14,0H2A2,2,0,0,0,0,2V3H1V2A1,1,0,0,1,2,1H14a1,1,0,0,1,1,1V14a1,1,0,0,1-1,1H2a1,1,0,0,1-1-1V13H0v1a2,2,0,0,0,2,2H14a2,2,0,0,0,2-2V2A2,2,0,0,0,14,0ZM.5,8.5h0A.5.5,0,0,1,0,8H0a.5.5,0,0,1,.5-.5h0A.5.5,0,0,1,1,8H1A.5.5,0,0,1,.5,8.5ZM.5,6h0A.5.5,0,0,1,0,5.5H0A.5.5,0,0,1,.5,5h0a.5.5,0,0,1,.5.5H1A.5.5,0,0,1,.5,6Zm0,5h0a.5.5,0,0,1-.5-.5H0A.5.5,0,0,1,.5,10h0a.5.5,0,0,1,.5.5H1A.5.5,0,0,1,.5,11Z"/>
</svg>
