<svg id="extensions" xmlns="http://www.w3.org/2000/svg" viewBox="0 0 16 16">
  <title></title>
  <path id="_Composition_сontour_" data-name="&lt;Composition сontour&gt;" d="M16,7.83936A6.48636,6.48636,0,0,0,13.48,6.32,3.48525,3.48525,0,0,0,8.02679,2.0531,3.47428,3.47428,0,0,0,7.5,2,3.49623,3.49623,0,0,0,5.05768,8.00165,6.38846,6.38846,0,0,0,2.19061,11.9024a7.00026,7.00026,0,0,1,.85962-8.85217.5.5,0,0,0-.70709-.70709,8,8,0,1,0,13.6568,5.65729L16,8ZM12.582,3.1109A2.49533,2.49533,0,0,1,10.65894,6.984l-.00483.00018A3.41971,3.41971,0,0,0,11,5.5,3.48581,3.48581,0,0,0,9.12219,2.41608,2.4953,2.4953,0,0,1,12.582,3.1109ZM5,5.5A2.5,2.5,0,1,1,7.5,8,2.5,2.5,0,0,1,5,5.5Zm7.94977,7.44977a7.00011,7.00011,0,0,1-9.89954,0c-.01153-.01154-.02106-.02435-.03253-.03595A5.48405,5.48405,0,0,1,5.93158,8.6131a3.41574,3.41574,0,0,0,3.87067-.49585A5.50943,5.50943,0,0,1,12.78,10a12.99355,12.99355,0,0,1,1.3.14,6.50915,6.50915,0,0,0-2.50074-2.3565A3.371,3.371,0,0,0,12.78,7.11a5.50044,5.50044,0,0,1,2.20935,1.1123A6.96819,6.96819,0,0,1,12.94977,12.94977Z"/>
</svg>
