<svg id="add_call" xmlns="http://www.w3.org/2000/svg" viewBox="0 0 32 32">
  <title></title>
  <g id="add_call-2" data-name="add_call">
    <path id="add_call-3" data-name="add_call" d="M0,16H1A15,15,0,1,0,16,1h0V0A16,16,0,1,1,0,16ZM8,26a8.99919,8.99919,0,0,1,5.3999-8.26953A4.46307,4.46307,0,0,1,12,14.48828a3.75337,3.75337,0,0,1,.58789-2.168.5598.5598,0,0,1,.69995-.168c.30005.15821.241.57813.15405.7461l-.26.584a3.33981,3.33981,0,0,0-.19995,1.10742c0,.00977.0481.3711.0481.5293a3.5,3.5,0,1,0,3.45288-4,2.23007,2.23007,0,0,0-.36108,0c-.241.0332-.52.125-.761.16406s-.56812-.03906-.6499-.25976a.55875.55875,0,0,1,.342-.67969A4.44805,4.44805,0,0,1,19.802,17.543a9.01751,9.01751,0,0,1,5.38892,4.94141c-.38989-.08594-.79-.12891-1.18994-.1875a8.00986,8.00986,0,0,0-5.08106-4,4.39056,4.39056,0,0,1-4.56592.1914,7.99929,7.99929,0,0,0-5.35107,7.30078c-.352.23242-.679.48242-1,.73242ZM5,11V6H0V5H5V0H6V5h5V6H6v5Zm6-2a1,1,0,1,1,1,1A.99974.99974,0,0,1,11,9Z"/>
  </g>
</svg>
