<svg id="add_note" xmlns="http://www.w3.org/2000/svg" viewBox="0 0 32 32">
  <title></title>
  <g id="add_note-2" data-name="add_note">
    <path id="add_note-3" data-name="add_note" d="M7,32a1.99947,1.99947,0,0,1-2-2V28H6v2a.99974.99974,0,0,0,1,1H26a.99974.99974,0,0,0,1-1V16.71484l1-1V30a1.99947,1.99947,0,0,1-2,2Zm4.35107-9.91992,14.739-14.7207a2,2,0,0,1,2.821,2.8125l-14.739,14.73828-4.342,1.51172Zm.01,2.82031,2.1001-.69922-1.458-1.41015Zm1.39112-2.81055L14.17212,23.5l12.6311-12.63086-1.3999-1.42969Zm14.051-14.01757-.71191.707,1.39111,1.40039.73194-.707v.00976a.99989.99989,0,0,0-.10547-1.41015,1.01033,1.01033,0,0,0-.6565-.24219.9779.9779,0,0,0-.65234.24219ZM4.5,23a1,1,0,1,1,1,1A.99974.99974,0,0,1,4.5,23Zm0-7a1,1,0,1,1,1,1A.99974.99974,0,0,1,4.5,16Zm0-7a1,1,0,1,1,1,1A.99974.99974,0,0,1,4.5,9ZM5,4V2A1.99947,1.99947,0,0,1,7,0H26a1.99947,1.99947,0,0,1,2,2V3.40625a4.09542,4.09542,0,0,0-1,.0918v-1.5a.99973.99973,0,0,0-1-1H7a.99973.99973,0,0,0-1,1v2Z"/>
  </g>
</svg>
