<svg id="cancel_call" xmlns="http://www.w3.org/2000/svg" viewBox="0 0 33.941 33.941">
  <title></title>
  <path id="cancel_call-2" data-name="cancel_call" d="M6.01028,22.98141a1.5,1.5,0,0,0,2.43811-1.649l3.84454-3.22653a.976.976,0,0,0,.30618-1.08541l-.01839-.04667-.92843-2.45578a.491.491,0,0,1,.35371-.59754l.00267-.00067,1.0345-.29487a27.80814,27.80814,0,0,1,3.10208-.65407s.61164-.09546.82448-.09758a8.16939,8.16939,0,0,1,.82449.09758,27.7919,27.7919,0,0,1,3.10208.65407l1.03449.29486a.491.491,0,0,1,.35706.59555l-.00068.00267-.92843,2.45719-.01767.046a.976.976,0,0,0,.30335,1.08823L25.489,21.336a1.5,1.5,0,1,0,2.68984-.12445l2.89348-3.44785a1.5,1.5,0,1,0-.73044-2.78105l-.28779-.23971-.005.00495a22.87,22.87,0,0,0-12.07951-4.867s-.74953-.06364-.99985-.06364-.99985.06364-.99985.06364A22.87,22.87,0,0,0,3.88967,14.74856l-.005-.00495-.28779.23971a1.5,1.5,0,1,0-.73327,2.77822L5.75714,21.2094A1.5,1.5,0,0,0,6.01028,22.98141ZM3.889,17.32455a1.5,1.5,0,0,0,.35144-1.5521A21.88,21.88,0,0,1,16.566,10.822s.30052-.01768.40659-.01768.40659.01768.40659.01768a21.88,21.88,0,0,1,12.32133,4.95045,1.5,1.5,0,0,0,.35143,1.5521c.01556.01556.034.02546.0495.041l-2.65943,3.17a1.5,1.5,0,0,0-1.26784.06434l-3.5023-2.93661a.664.664,0,0,1-.33305-.6569h0l.05445-.18314.94257-2.4473h0l.04526-.16971a.97519.97519,0,0,0,.02263-.355.93813.93813,0,0,0-.0198-.10607.9791.9791,0,0,0-.07849-.227.948.948,0,0,0-.05162-.10253.971.971,0,0,0-.577-.43558l-1.41421-.43275a19.38,19.38,0,0,0-3.29229-.64912s-.74883-.08556-.99985-.08486-.99985.08486-.99985.08486a19.38409,19.38409,0,0,0-3.29229.64912l-1.41421.43275a.971.971,0,0,0-.577.43558.948.948,0,0,0-.05162.10253.97475.97475,0,0,0-.07849.227.93771.93771,0,0,0-.0198.10607.97387.97387,0,0,0,.02263.355l.04526.16971h0l.939,2.44659s.03536.12162.05445.18314h0a.664.664,0,0,1-.33305.6569L7.7632,20.59917a1.5,1.5,0,0,0-1.26784-.06435l-2.65943-3.17A.54639.54639,0,0,0,3.889,17.32455Z"/>
</svg>
