<svg id="chat" xmlns="http://www.w3.org/2000/svg" viewBox="0 0 32 32">
  <title></title>
  <g id="chat-2" data-name="chat">
    <g id="chat-3" data-name="chat">
      <path id="Path_3440" data-name="Path 3440" d="M32,16.666a2,2,0,0,0-1.481-1.923A13.988,13.988,0,0,0,17.9,2.733a1.987,1.987,0,0,0-3.794,0A13.988,13.988,0,0,0,1.481,14.743a1.989,1.989,0,0,0,0,3.846,13.98,13.98,0,0,0,5.2,9.071l-.13.144a10.55623,10.55623,0,0,1-2.232,1.673c-.077.042-.157.077-.234.117-.142.09-.281.189-.424.274a11.48289,11.48289,0,0,0,1.74.511,13.167,13.167,0,0,0,6.309-.217l-.01.01a13.81114,13.81114,0,0,0,3.631.5h1.333A13.992,13.992,0,0,0,30.519,18.59,2,2,0,0,0,32,16.666ZM16.667,29.333H15.333c-.372,0-.737-.024-1.1-.056h0a12.60878,12.60878,0,0,1-2.526-.484,13.20606,13.20606,0,0,1-2.386.507,12.59965,12.59965,0,0,1-2.448-.014c.285-.243.57-.484.835-.757h0c.3-.309.586-.639.86-.983l.1-.139a12.33578,12.33578,0,0,1-1.11-.75,12.651,12.651,0,0,1-4.752-8.166,2,2,0,0,0,0-3.649A12.658,12.658,0,0,1,14.141,4.06a1.994,1.994,0,0,0,3.718,0A12.658,12.658,0,0,1,29.187,14.842a2,2,0,0,0,0,3.648A12.658,12.658,0,0,1,16.667,29.333Z"/>
      <path id="Path_3441" data-name="Path 3441" d="M21.333,20H10.667a.667.667,0,1,0-.05164,1.333q.02581.001.05164,0H21.333a.667.667,0,0,0,0-1.333Z"/>
      <path id="Path_3442" data-name="Path 3442" d="M23.333,16H8.667a.667.667,0,0,0,0,1.333H23.333a.667.667,0,0,0,0-1.333Z"/>
      <path id="Path_3443" data-name="Path 3443" d="M12.667,13.333h6.667A.667.667,0,1,0,19.38564,12q-.02581-.001-.05164,0H12.667a.667.667,0,0,0-.05164,1.333Q12.64117,13.334,12.667,13.333Z"/>
    </g>
  </g>
</svg>
