<svg id="mute" xmlns="http://www.w3.org/2000/svg" viewBox="0 0 32 32.004">
  <title></title>
  <g id="mute-2" data-name="mute">
    <g id="mute-3" data-name="mute">
      <path id="Union_47" data-name="Union 47" d="M10.501,32.004a.5.5,0,0,1,0-1h5v-3h-1.5c-3.87012,0-7-4.13086-7-8V16.85556a1.00016,1.00016,0,1,1,1.366-.36523,1.00941,1.00941,0,0,1-.366.36523V20.004c0,3.3125,2.69311,7,6,7h4a5.68424,5.68424,0,0,0,4.3999-2.4707l.71191.71289a6.64289,6.64289,0,0,1-5.114,2.75976h-1.5v3h5a.5.5,0,0,1,0,1Zm18.5769-2.21289L2.209,2.922a.49486.49486,0,0,1-.00854-.69922L2.209,2.21494A.49808.49808,0,0,1,2.916,2.211l.00488.00391L29.78979,29.08408a.50167.50167,0,0,1-.71191.707ZM17,25.00205H15c-3.312,0-5-2.6875-5-6V12.12119l1,1V19.004c0,2.75586,1.24,5,4,5h2a3.5294,3.5294,0,0,0,3.177-1.71875l.72193.7168a4.50283,4.50283,0,0,1-3.7439,2c-.051.002-.103.002-.15405.002Zm6.78-3.33789a6.84173,6.84173,0,0,0,.218-1.66016V16.85556a1.00016,1.00016,0,1,1,1.366-.36523,1.00941,1.00941,0,0,1-.366.36523V20.004a7.94946,7.94946,0,0,1-.41211,2.4707ZM21,18.88486V6.004c0-2.76172-1.24-5-4-5H15c-2.76,0-4,2.23633-4,5V8.88486l-1-1V6.004c0-3.30859,1.68994-6,5-6h2c3.30811,0,5,2.69336,5,6V19.88291ZM19,17.006v-8a.5.5,0,1,1,1,0v8a.5.5,0,0,1-1,0Zm0-10.5v-1a.5.5,0,1,1,1,0v1a.5.5,0,0,1-1,0Z"/>
    </g>
  </g>
</svg>
