<svg id="Layer_1" data-name="Layer 1" xmlns="http://www.w3.org/2000/svg" viewBox="0 0 24 24">
  <title>contacts_24px</title>
  <g id="Layer_1-2" data-name="Layer 1">
    <rect width="24" height="24" fill="none"/>
    <path d="M8,1H8A1,1,0,0,1,9,2H9A1,1,0,0,1,8,3H8A1,1,0,0,1,7,2H7A1,1,0,0,1,8,1Z"/>
    <path d="M24,12A12,12,0,0,0,12,0V1A11,11,0,1,1,1,12H0a12,12,0,0,0,24,0Z"/>
    <path d="M4.01776,18.95367c0,.17108.01611.338.02551.50677.32117-.253.64667-.50061.98267-.7348a7.97,7.97,0,0,1,5.35352-7.29919,4.39456,4.39456,0,0,0,4.56976-.18958,7.98208,7.98208,0,0,1,5.07971,3.97748c.39941.05853.80286.10474,1.19458.18549a8.99,8.99,0,0,0-5.39233-4.94275,4.4477,4.4477,0,0,0-4.753-7.20026.56192.56192,0,0,0-.34143.68176c.08142.21521.41046.297.649.25946.18634-.05072.524-.12726.75891-.16223A2.2248,2.2248,0,0,1,12.5,4,3.5,3.5,0,1,1,9.05377,8.03363C9.0271,7.877,9,7.51862,9,7.5a3.46444,3.46444,0,0,1,.19806-1.11444c.00525-.01556.252-.57367.25543-.58l.00031-.00067c.08636-.16949.15137-.5882-.14764-.74646a.56737.56737,0,0,0-.71973.26459,3.76347,3.76347,0,0,0-.58185,2.16852A4.46191,4.46191,0,0,0,9.4032,10.73315,8.96878,8.96878,0,0,0,4.01776,18.95367Z"/>
  </g>
</svg>
