<svg id="Layer_1" data-name="Layer 1" xmlns="http://www.w3.org/2000/svg" viewBox="0 0 24 24">
  <title>dialer_24px</title>
  <path id="_composite_contour_" data-name="&lt;composite contour&gt;" d="M24,15.5A1.538,1.538,0,0,0,22.5,14a1.56808,1.56808,0,0,0-1.4.9l-5.6-.4a.54993.54993,0,0,0-.5.3l-1.1,2.7a.36527.36527,0,0,1-.5.2h0a11.91334,11.91334,0,0,1-4.2-2.8,12.88254,12.88254,0,0,1-2.8-4.2.36527.36527,0,0,1,.2-.5L9.2,9a.54993.54993,0,0,0,.3-.5L9.1,2.9a1.50737,1.50737,0,0,0,.8-2,1.50737,1.50737,0,0,0-2-.8A1.44139,1.44139,0,0,0,7,1.2l-4.3.5A1.60024,1.60024,0,0,0,.6,1.2,1.46457,1.46457,0,0,0,.2,3.3a1.45624,1.45624,0,0,0,.9.6A17.99647,17.99647,0,0,0,18,22.9h2.1A1.51822,1.51822,0,1,0,23,22a1.55511,1.55511,0,0,0-.6-.8l.5-4.3C23.5,16.9,24,16.2,24,15.5ZM21.4,21a1.54089,1.54089,0,0,0-1.3.9A16.99922,16.99922,0,0,1,2.1,6V3.9A1.42386,1.42386,0,0,0,3,2.6l4.2-.4a1.76456,1.76456,0,0,0,.9.8l.4,5a.51954.51954,0,0,1-.2.4l-3,1.2c-.2,0-.3.2-.3.4v.1A13.24215,13.24215,0,0,0,13.9,19a.90151.90151,0,0,0,.5-.1c0-.1.1-.1.1-.2a31.04639,31.04639,0,0,0,1.2-2.9c.1-.2.2-.2.4-.2l5,.4a1.41929,1.41929,0,0,0,.8.9Z"/>
</svg>
